<svg width="100" height="101" viewBox="0 0 100 101" fill="none" xmlns="http://www.w3.org/2000/svg">
<mask id="path-1-inside-1_524_160" fill="white">
<path d="M50 100.5C77.6142 100.5 100 78.1142 100 50.5C100 22.8858 77.6142 0.5 50 0.5C22.3858 0.5 0 22.8858 0 50.5C0 78.1142 22.3858 100.5 50 100.5Z"/>
<path d="M38.6049 57.0789C39.76 59.0789 41.421 60.74 43.421 61.8953C45.421 63.05 47.6905 63.6579 50 63.6579C52.3095 63.6579 54.5789 63.05 56.5789 61.8953C58.5789 60.74 60.24 59.0789 61.3952 57.0789"/>
<path d="M34.2105 29.4474H28.9474C26.0406 29.4474 23.6842 31.8038 23.6842 34.7105C23.6842 37.6173 26.0406 39.9737 28.9474 39.9737H34.2105C37.1173 39.9737 39.4737 37.6173 39.4737 34.7105C39.4737 31.8038 37.1173 29.4474 34.2105 29.4474Z"/>
<path d="M71.0526 29.4474H65.7895C62.8827 29.4474 60.5263 31.8038 60.5263 34.7105C60.5263 37.6173 62.8827 39.9737 65.7895 39.9737H71.0526C73.9594 39.9737 76.3158 37.6173 76.3158 34.7105C76.3158 31.8038 73.9594 29.4474 71.0526 29.4474Z"/>
</mask>
<path d="M40.3368 56.0787C39.7844 55.1222 38.5612 54.7946 37.6047 55.347C36.6482 55.8994 36.3206 57.1227 36.873 58.0792L40.3368 56.0787ZM43.421 61.8953L42.4207 63.6271L42.421 63.6273L43.421 61.8953ZM56.5789 61.8953L57.579 63.6273L57.5793 63.6271L56.5789 61.8953ZM63.1271 58.0793C63.6796 57.1228 63.3521 55.8996 62.3956 55.3471C61.4391 54.7946 60.2159 55.1221 59.6634 56.0786L63.1271 58.0793ZM98 50.5C98 77.0097 76.5097 98.5 50 98.5V102.5C78.7188 102.5 102 79.2188 102 50.5H98ZM50 98.5C23.4903 98.5 2 77.0097 2 50.5H-2C-2 79.2188 21.2812 102.5 50 102.5V98.5ZM2 50.5C2 23.9903 23.4903 2.5 50 2.5V-1.5C21.2812 -1.5 -2 21.7812 -2 50.5H2ZM50 2.5C76.5097 2.5 98 23.9903 98 50.5H102C102 21.7812 78.7188 -1.5 50 -1.5V2.5ZM36.873 58.0792C38.2036 60.383 40.1169 62.2964 42.4207 63.6271L44.4214 60.1634C42.7251 59.1836 41.3164 57.7748 40.3368 56.0787L36.873 58.0792ZM42.421 63.6273C44.7252 64.9577 47.3396 65.6579 50 65.6579V61.6579C48.0415 61.6579 46.1169 61.1424 44.4211 60.1632L42.421 63.6273ZM50 65.6579C52.6604 65.6579 55.2748 64.9577 57.579 63.6273L55.5789 60.1632C53.8831 61.1424 51.9585 61.6579 50 61.6579V65.6579ZM57.5793 63.6271C59.8831 62.2964 61.7964 60.3831 63.1271 58.0793L59.6634 56.0786C58.6836 57.7748 57.2748 59.1836 55.5786 60.1634L57.5793 63.6271ZM28.9474 31.4474H34.2105V27.4474H28.9474V31.4474ZM34.2105 31.4474C36.0127 31.4474 37.4737 32.9083 37.4737 34.7105H41.4737C41.4737 30.6992 38.2219 27.4474 34.2105 27.4474V31.4474ZM37.4737 34.7105C37.4737 36.5127 36.0127 37.9737 34.2105 37.9737V41.9737C38.2219 41.9737 41.4737 38.7219 41.4737 34.7105H37.4737ZM34.2105 37.9737H28.9474V41.9737H34.2105V37.9737ZM28.9474 37.9737C27.1452 37.9737 25.6842 36.5127 25.6842 34.7105H21.6842C21.6842 38.7219 24.936 41.9737 28.9474 41.9737V37.9737ZM25.6842 34.7105C25.6842 32.9083 27.1452 31.4474 28.9474 31.4474V27.4474C24.936 27.4474 21.6842 30.6992 21.6842 34.7105H25.6842ZM65.7895 31.4474H71.0526V27.4474H65.7895V31.4474ZM71.0526 31.4474C72.8548 31.4474 74.3158 32.9083 74.3158 34.7105H78.3158C78.3158 30.6992 75.064 27.4474 71.0526 27.4474V31.4474ZM74.3158 34.7105C74.3158 36.5127 72.8548 37.9737 71.0526 37.9737V41.9737C75.064 41.9737 78.3158 38.7219 78.3158 34.7105H74.3158ZM71.0526 37.9737H65.7895V41.9737H71.0526V37.9737ZM65.7895 37.9737C63.9873 37.9737 62.5263 36.5127 62.5263 34.7105H58.5263C58.5263 38.7219 61.7781 41.9737 65.7895 41.9737V37.9737ZM62.5263 34.7105C62.5263 32.9083 63.9873 31.4474 65.7895 31.4474V27.4474C61.7781 27.4474 58.5263 30.6992 58.5263 34.7105H62.5263Z" fill="white" mask="url(#path-1-inside-1_524_160)"/>
</svg>
