<svg width="140" height="101" viewBox="0 0 140 101" fill="none" xmlns="http://www.w3.org/2000/svg">
<path d="M137.098 37.3685C140.953 35.6846 140.953 30.2129 137.098 28.5289L75.7998 1.7111C73.9518 0.900482 71.9783 0.5 70 0.5C68.0217 0.5 66.0483 0.905307 64.2002 1.71592L2.9023 28.5289C-0.952948 30.2177 -0.952948 35.6846 2.9023 37.3685L31.3993 49.8366V65.8559C31.3993 71.3372 34.497 76.3504 39.3993 78.8016C49.035 83.617 59.5151 86.0247 70 86.0247C80.4849 86.0247 90.965 83.617 100.596 78.8016C105.503 76.3504 108.601 71.3372 108.601 65.8559V49.8366L127.901 41.3926V76.3745C125.238 76.3745 123.076 78.5362 123.076 81.1996V95.6749C123.076 98.3384 125.238 100.5 127.901 100.5H132.726C135.39 100.5 137.551 98.3384 137.551 95.6749V81.1996C137.551 78.5362 135.39 76.3745 132.726 76.3745V39.2793L137.098 37.3685ZM103.776 65.8559C103.776 69.5326 101.73 72.8426 98.4391 74.4879C89.6574 78.8788 79.8191 81.1996 70 81.1996C60.1809 81.1996 50.3426 78.8788 41.5609 74.4879C38.2702 72.8426 36.2244 69.5326 36.2244 65.8559V51.9499L64.2002 64.1864C66.0483 64.997 68.0265 65.4023 70 65.4023C71.9783 65.4023 73.9518 64.997 75.7998 64.1864L103.776 51.9451V65.8559ZM73.8697 59.7666C72.6442 60.3022 71.3414 60.5772 70 60.5772C68.6586 60.5772 67.3607 60.307 66.1303 59.7666L4.83716 32.9487L66.1303 6.13088C67.3607 5.59529 68.6586 5.32509 70 5.32509C71.3414 5.32509 72.6393 5.59529 73.8697 6.1357L135.163 32.9487L129.768 35.3082L74.3136 30.8739C73.532 29.2575 71.9107 28.1236 70 28.1236C67.3366 28.1236 65.1749 30.2853 65.1749 32.9487C65.1749 35.6122 67.3366 37.7738 70 37.7738C71.6261 37.7738 72.9964 36.915 73.8697 35.6797L120.413 39.4047L73.8697 59.7666Z" fill="white"/>
</svg>
