<svg width="104" height="104" viewBox="0 0 104 104" fill="none" xmlns="http://www.w3.org/2000/svg">
<path d="M7.85785 27.8578L6.53203 26.532L6.53202 26.532L7.85785 27.8578ZM96.142 27.8578L94.8161 29.1836L94.8162 29.1837L96.142 27.8578ZM96.142 96.142L94.8162 94.8161L94.8161 94.8162L96.142 96.142ZM7.85785 96.142L9.18369 94.8162L9.18364 94.8161L7.85785 96.142ZM69.071 4.92895L67.7452 6.25479L67.7452 6.2548L69.071 4.92895ZM34.9289 4.92895L36.2548 6.25479L36.2548 6.25476L34.9289 4.92895ZM43.875 70.3335C43.875 69.298 43.0355 68.4585 42 68.4585C40.9645 68.4585 40.125 69.298 40.125 70.3335H43.875ZM50.125 82C50.125 83.0355 50.9645 83.875 52 83.875C53.0355 83.875 53.875 83.0355 53.875 82H50.125ZM53.875 42C53.875 40.9645 53.0355 40.125 52 40.125C50.9645 40.125 50.125 40.9645 50.125 42H53.875ZM60.125 53.6665C60.125 54.702 60.9645 55.5415 62 55.5415C63.0355 55.5415 63.875 54.702 63.875 53.6665H60.125ZM3.875 62C3.875 52.519 3.87898 45.5968 4.59051 40.3045C5.29479 35.0661 6.6612 31.7062 9.18368 29.1837L6.53202 26.532C3.19665 29.8674 1.63413 34.1506 0.873951 39.8048C0.121018 45.4051 0.125 52.625 0.125 62H3.875ZM9.18367 29.1837C11.7062 26.6612 15.066 25.2948 20.3044 24.5905C25.5967 23.879 32.5189 23.875 42 23.875V20.125C32.6249 20.125 25.405 20.121 19.8047 20.874C14.1505 21.6341 9.86742 23.1967 6.53203 26.532L9.18367 29.1837ZM42 23.875H62V20.125H42V23.875ZM62 23.875C71.481 23.875 78.4033 23.879 83.6956 24.5905C88.934 25.2948 92.2938 26.6612 94.8161 29.1836L97.4679 26.5321C94.1327 23.1967 89.8495 21.6341 84.1953 20.874C78.595 20.121 71.375 20.125 62 20.125V23.875ZM94.8162 29.1837C97.3387 31.7062 98.7052 35.0661 99.4095 40.3045C100.121 45.5968 100.125 52.519 100.125 62H103.875C103.875 52.625 103.879 45.4051 103.126 39.8048C102.366 34.1506 100.803 29.8674 97.4678 26.532L94.8162 29.1837ZM100.125 62C100.125 71.481 100.121 78.4033 99.4095 83.6956C98.7052 88.934 97.3387 92.2938 94.8162 94.8161L97.4678 97.4679C100.803 94.1327 102.366 89.8495 103.126 84.1953C103.879 78.595 103.875 71.375 103.875 62H100.125ZM94.8161 94.8162C92.2938 97.3387 88.934 98.7052 83.6956 99.4095C78.4033 100.121 71.481 100.125 62 100.125V103.875C71.375 103.875 78.595 103.879 84.1953 103.126C89.8495 102.366 94.1327 100.803 97.4679 97.4678L94.8161 94.8162ZM62 100.125H42V103.875H62V100.125ZM42 100.125C32.5189 100.125 25.5967 100.121 20.3044 99.4095C15.0661 98.7052 11.7062 97.3387 9.18369 94.8162L6.53201 97.4678C9.8674 100.803 14.1505 102.366 19.8047 103.126C25.405 103.879 32.6249 103.875 42 103.875V100.125ZM9.18364 94.8161C6.6612 92.2938 5.29479 88.934 4.59051 83.6956C3.87898 78.4033 3.875 71.481 3.875 62H0.125C0.125 71.375 0.121018 78.595 0.873951 84.1953C1.63413 89.8495 3.19665 94.1327 6.53206 97.4679L9.18364 94.8161ZM73.875 22C73.875 17.339 73.879 13.6545 73.4922 10.7774C73.0981 7.84637 72.2678 5.47399 70.3968 3.6031L67.7452 6.2548C68.8032 7.3128 69.4374 8.76191 69.7756 11.2771C70.121 13.8463 70.125 17.2329 70.125 22H73.875ZM70.3968 3.60311C68.5259 1.73221 66.1535 0.901912 63.2225 0.507839C60.3454 0.121018 56.661 0.125 52 0.125V3.875C56.767 3.875 60.1536 3.87898 62.7228 4.2244C65.238 4.56256 66.6871 5.19674 67.7452 6.25479L70.3968 3.60311ZM52 0.125C47.339 0.125 43.6546 0.121018 40.7775 0.507838C37.8464 0.90191 35.474 1.73221 33.6031 3.60314L36.2548 6.25476C37.3128 5.19674 38.7619 4.56256 41.2772 4.2244C43.8463 3.87898 47.233 3.875 52 3.875V0.125ZM33.6031 3.60311C31.7322 5.47401 30.9019 7.84638 30.5078 10.7774C30.121 13.6546 30.125 17.339 30.125 22H33.875C33.875 17.2329 33.879 13.8463 34.2244 11.2771C34.5626 8.76189 35.1967 7.31279 36.2548 6.25479L33.6031 3.60311ZM52 80.5415C58.2239 80.5415 63.875 76.2766 63.875 70.3335H60.125C60.125 73.5944 56.8221 76.7915 52 76.7915V80.5415ZM63.875 70.3335C63.875 64.3899 58.224 60.125 52 60.125V63.875C56.822 63.875 60.125 67.0721 60.125 70.3335H63.875ZM52 60.125C47.178 60.125 43.875 56.9279 43.875 53.6665H40.125C40.125 59.6101 45.776 63.875 52 63.875V60.125ZM43.875 53.6665C43.875 50.4056 47.1779 47.2085 52 47.2085V43.4585C45.7761 43.4585 40.125 47.7234 40.125 53.6665H43.875ZM52 76.7915C47.1779 76.7915 43.875 73.5944 43.875 70.3335H40.125C40.125 76.2766 45.7761 80.5415 52 80.5415V76.7915ZM50.125 78.6665V82H53.875V78.6665H50.125ZM50.125 42V45.3335H53.875V42H50.125ZM52 47.2085C56.8221 47.2085 60.125 50.4056 60.125 53.6665H63.875C63.875 47.7234 58.2239 43.4585 52 43.4585V47.2085Z" fill="white"/>
</svg>
