<svg width="92" height="100" viewBox="0 0 92 100" fill="none" xmlns="http://www.w3.org/2000/svg">
<path d="M0.166748 13.5417C0.166748 6.06283 6.22954 0 13.7084 0H69.9584C77.4372 0 83.5001 6.06279 83.5001 13.5417V64.0779C82.9984 64.4133 82.5222 64.8029 82.0792 65.2458L77.2501 70.075V13.5417C77.2501 9.51458 73.9855 6.25 69.9584 6.25H13.7084C9.68133 6.25 6.41675 9.51458 6.41675 13.5417V86.4571C6.41675 90.4842 9.68133 93.7488 13.7084 93.7488H47.3238L53.5738 99.9988H13.7084C6.22954 99.9988 0.166748 93.9358 0.166748 86.4571V13.5417Z" fill="white"/>
<path d="M27.2501 28.125C27.2501 31.0015 24.9182 33.3333 22.0417 33.3333C19.1652 33.3333 16.8334 31.0015 16.8334 28.125C16.8334 25.2485 19.1652 22.9167 22.0417 22.9167C24.9182 22.9167 27.2501 25.2485 27.2501 28.125Z" fill="white"/>
<path d="M22.0417 55.2075C24.9182 55.2075 27.2501 52.8758 27.2501 49.9992C27.2501 47.1229 24.9182 44.7908 22.0417 44.7908C19.1652 44.7908 16.8334 47.1229 16.8334 49.9992C16.8334 52.8758 19.1652 55.2075 22.0417 55.2075Z" fill="white"/>
<path d="M22.0417 77.0833C24.9182 77.0833 27.2501 74.7517 27.2501 71.875C27.2501 68.9983 24.9182 66.6667 22.0417 66.6667C19.1652 66.6667 16.8334 68.9983 16.8334 71.875C16.8334 74.7517 19.1652 77.0833 22.0417 77.0833Z" fill="white"/>
<path d="M36.6251 25C34.8993 25 33.5001 26.3991 33.5001 28.125C33.5001 29.8509 34.8993 31.25 36.6251 31.25H63.7084C65.4342 31.25 66.8334 29.8509 66.8334 28.125C66.8334 26.3991 65.4342 25 63.7084 25H36.6251Z" fill="white"/>
<path d="M33.5001 49.9992C33.5001 48.2733 34.8993 46.8742 36.6251 46.8742H63.7084C65.4342 46.8742 66.8334 48.2733 66.8334 49.9992C66.8334 51.725 65.4342 53.1242 63.7084 53.1242H36.6251C34.8993 53.1242 33.5001 51.725 33.5001 49.9992Z" fill="white"/>
<path d="M36.6251 68.75C34.8993 68.75 33.5001 70.1492 33.5001 71.875C33.5001 73.6008 34.8993 75 36.6251 75H63.7084C65.4342 75 66.8334 73.6008 66.8334 71.875C66.8334 70.1492 65.4342 68.75 63.7084 68.75H36.6251Z" fill="white"/>
<path d="M90.918 74.0846L65.918 99.0846C65.3322 99.6708 64.5372 100 63.7084 100C62.8797 100 62.0847 99.6708 61.4988 99.0846L49.0067 86.5929C47.7863 85.3725 47.7863 83.3938 49.0067 82.1733C50.2272 80.9529 52.2059 80.9529 53.4263 82.1733L63.7084 92.4554L86.4988 69.6654C87.7193 68.445 89.6976 68.445 90.918 69.6654C92.1384 70.8858 92.1384 72.8642 90.918 74.0846Z" fill="white"/>
</svg>
