<svg width="106" height="106" viewBox="0 0 106 106" fill="none" xmlns="http://www.w3.org/2000/svg">
<path d="M80.7135 13.0218L78.2135 13.0161V13.0171L80.7135 13.0218ZM71.7805 3.0571L71.5137 5.54282L71.5137 5.54283L71.7805 3.0571ZM34.2181 3.0571L34.4848 5.54283L34.4849 5.54282L34.2181 3.0571ZM25.2852 13.0217L27.7852 13.0163V13.0163L25.2852 13.0217ZM68 85.5C69.3807 85.5 70.5 84.3807 70.5 83C70.5 81.6193 69.3807 80.5 68 80.5V85.5ZM38 80.5C36.6193 80.5 35.5 81.6193 35.5 83C35.5 84.3807 36.6193 85.5 38 85.5V80.5ZM101.443 77.314C101.636 75.9468 100.684 74.6823 99.3165 74.4895C97.9494 74.2967 96.6848 75.2488 96.492 76.616L101.443 77.314ZM91.8585 99.286L93.4528 101.212L93.4529 101.212L91.8585 99.286ZM14.1417 99.286L12.5473 101.212L12.5474 101.212L14.1417 99.286ZM7.0324 76.965L9.50792 76.616L7.0324 76.965ZM4.91755 61.965L2.44204 62.314L2.44204 62.314L4.91755 61.965ZM6.3116 33.1192L8.14612 34.8175L8.14613 34.8175L6.3116 33.1192ZM99.6885 33.1192L101.523 31.4208L101.523 31.4207L99.6885 33.1192ZM99.8144 52.6972C99.6472 54.0677 100.623 55.3144 101.993 55.4816C103.364 55.6488 104.61 54.6734 104.778 53.3028L99.8144 52.6972ZM93.271 28.4316C94.6827 20.3776 88.4846 13 80.3085 13V18C85.3784 18 89.2213 22.5747 88.3461 27.5684L93.271 28.4316ZM80.3085 13H25.6894V18H80.3085V13ZM25.6894 13C17.5129 13 11.3156 20.3777 12.7267 28.4315L17.6517 27.5685C16.7767 22.5746 20.6194 18 25.6894 18V13ZM82.9846 15.7724C83.1192 14.5442 83.2122 13.7301 83.2135 13.0264L78.2135 13.0171C78.2128 13.3834 78.1637 13.865 78.0144 15.2276L82.9846 15.7724ZM83.2135 13.0274C83.2278 6.62939 78.4083 1.25398 72.0472 0.571371L71.5137 5.54283C75.3307 5.95242 78.2221 9.17781 78.2135 13.0161L83.2135 13.0274ZM72.0473 0.571377C71.3482 0.496345 70.5296 0.5 69.294 0.5V5.5C70.6643 5.5 71.1488 5.50366 71.5137 5.54282L72.0473 0.571377ZM69.294 0.5H36.7049V5.5H69.294V0.5ZM36.7049 0.5C35.4691 0.5 34.6504 0.496344 33.9513 0.571377L34.4849 5.54282C34.8498 5.50366 35.3344 5.5 36.7049 5.5V0.5ZM33.9513 0.571372C27.5902 1.254 22.7712 6.62951 22.7852 13.0271L27.7852 13.0163C27.7768 9.17769 30.6682 5.9524 34.4848 5.54283L33.9513 0.571372ZM22.7852 13.0271C22.7867 13.7302 22.8795 14.5437 23.014 15.7721L27.9843 15.2279C27.8351 13.8653 27.786 13.3833 27.7852 13.0163L22.7852 13.0271ZM68 80.5H38V85.5H68V80.5ZM96.492 76.616C95.6079 82.8863 94.9744 87.343 94.0319 90.7104C93.1119 93.9974 91.9741 95.9445 90.2641 97.3604L93.4529 101.212C96.2289 98.913 97.7711 95.9019 98.8469 92.0581C99.9001 88.2948 100.578 83.4482 101.443 77.314L96.492 76.616ZM90.2642 97.3603C88.5382 98.7893 86.2995 99.6184 82.673 100.054C78.9875 100.496 74.2015 100.5 67.523 100.5V105.5C74.0775 105.5 79.2162 105.504 83.2687 105.018C87.3802 104.525 90.6928 103.497 93.4528 101.212L90.2642 97.3603ZM67.523 100.5H38.4768V105.5H67.523V100.5ZM38.4768 100.5C31.7984 100.5 27.0125 100.496 23.3271 100.054C19.7006 99.6184 17.462 98.7893 15.736 97.3603L12.5474 101.212C15.3074 103.497 18.6199 104.525 22.7314 105.018C26.7838 105.504 31.9225 105.5 38.4768 105.5V100.5ZM15.7361 97.3604C14.0261 95.9445 12.8882 93.9973 11.9681 90.7104C11.0256 87.343 10.392 82.8862 9.50792 76.616L4.55688 77.314C5.42174 83.4482 6.09981 88.2948 7.15319 92.0581C8.2291 95.9019 9.77134 98.913 12.5473 101.212L15.7361 97.3604ZM9.50792 76.616L7.39307 61.616L2.44204 62.314L4.55688 77.314L9.50792 76.616ZM7.39307 61.616C6.26685 53.628 5.46785 47.914 5.50098 43.549C5.53345 39.2712 6.37004 36.736 8.14612 34.8175L4.47708 31.4208C1.51392 34.6214 0.538402 38.6001 0.501124 43.511C0.464508 48.3347 1.3381 54.484 2.44204 62.314L7.39307 61.616ZM8.14613 34.8175C9.94567 32.8737 12.562 31.7238 17.1158 31.1181C21.7233 30.5052 27.8536 30.5 36.362 30.5V25.5C27.9963 25.5 21.471 25.4948 16.4566 26.1617C11.3886 26.8358 7.41678 28.2454 4.47707 31.4208L8.14613 34.8175ZM36.362 30.5H69.638V25.5H36.362V30.5ZM69.638 30.5C78.1464 30.5 84.2766 30.5052 88.8841 31.1181C93.4379 31.7238 96.0543 32.8737 97.854 34.8176L101.523 31.4207C98.5832 28.2454 94.6113 26.8358 89.5433 26.1617C84.5289 25.4948 78.0036 25.5 69.638 25.5V30.5ZM97.8539 34.8175C100.699 37.8908 101.064 42.4532 99.8144 52.6972L104.778 53.3028C105.981 43.4447 106.166 36.436 101.523 31.4208L97.8539 34.8175Z" fill="white"/>
</svg>
