<svg width="100" height="100" viewBox="0 0 100 100" fill="none" xmlns="http://www.w3.org/2000/svg">
<path d="M91.0137 21.4827C90.4907 20.808 89.7287 20.3598 88.8848 20.2306C88.041 20.1014 87.1798 20.301 86.4788 20.7882C85.7779 21.2755 85.2907 22.0132 85.1178 22.8492C84.9449 23.6851 85.0995 24.5556 85.5496 25.2809C89.4328 30.8601 91.9483 37.275 92.8926 44.0067C93.837 50.7384 93.1836 57.5978 90.9854 64.0301C88.7872 70.4624 85.1059 76.2871 80.2393 81.0329C75.3726 85.7787 69.4573 89.3124 62.9717 91.3482C56.4862 93.3841 49.6125 93.8648 42.9067 92.7516C36.2009 91.6383 29.8513 88.9624 24.3714 84.9402C18.8915 80.918 14.4353 75.6625 11.3632 69.5988C8.291 63.535 6.6892 56.8333 6.6873 50.0358C6.72928 40.7159 9.758 31.6551 15.3288 24.1833C20.8996 16.7116 28.7191 11.2226 37.6392 8.52225C38.0592 8.39755 38.4506 8.19135 38.7909 7.9154C39.1313 7.63946 39.4139 7.29919 39.6227 6.91401C39.8316 6.52883 39.9625 6.10629 40.008 5.67051C40.0536 5.23474 40.0128 4.79426 39.8881 4.37423C39.7634 3.9542 39.5572 3.56285 39.2813 3.22251C39.0053 2.88217 38.6651 2.59952 38.2799 2.39069C37.8947 2.18185 37.4722 2.05093 37.0364 2.0054C36.6006 1.95986 36.1601 2.00061 35.7401 2.1253C26.8566 4.77002 18.8835 9.83312 12.7121 16.7487C6.54076 23.6643 2.41417 32.1599 0.793608 41.286C-0.826956 50.4121 0.122357 59.8091 3.53544 68.4267C6.94853 77.0442 12.6909 84.5428 20.1208 90.0844C27.5506 95.626 36.3752 98.9921 45.6082 99.8066C54.8412 100.621 64.1188 98.852 72.4041 94.6968C80.6894 90.5416 87.6559 84.1641 92.525 76.2772C97.3941 68.3902 99.9739 59.3046 99.9761 50.0358C99.9947 39.8231 96.8652 29.8529 91.0137 21.4827Z" fill="white"/>
<path d="M62.3607 8.52218C67.5548 10.0982 72.4043 12.6416 76.6539 16.0186C76.9973 16.2899 77.3909 16.4908 77.812 16.61C78.2331 16.7292 78.6736 16.7643 79.1083 16.7132C79.543 16.6622 79.9633 16.526 80.3454 16.3125C80.7274 16.099 81.0637 15.8123 81.335 15.4689C81.6062 15.1254 81.8072 14.7319 81.9264 14.3107C82.0456 13.8896 82.0806 13.4491 82.0296 13.0145C81.9785 12.5798 81.8424 12.1594 81.6289 11.7773C81.4154 11.3953 81.1287 11.059 80.7852 10.7878C75.8339 6.86685 70.1799 3.92676 64.1265 2.12523C63.2782 1.8734 62.3646 1.96886 61.5867 2.39061C60.8088 2.81237 60.2303 3.52587 59.9785 4.37416C59.7267 5.22245 59.8221 6.13603 60.2439 6.91393C60.6656 7.69184 61.3791 8.27034 62.2274 8.52218H62.3607ZM47.6344 5.75683C47.9582 6.05113 48.3301 6.28777 48.7339 6.4565C49.1327 6.63276 49.5639 6.72381 49.9999 6.72381C50.436 6.72381 50.8672 6.63276 51.266 6.4565C51.6694 6.28719 52.0412 6.05061 52.3655 5.75683C52.6743 5.44551 52.9186 5.0763 53.0844 4.67037C53.2502 4.26444 53.3342 3.82977 53.3317 3.39129C53.3194 2.50916 52.9743 1.66423 52.3655 1.02576C51.9808 0.624603 51.5019 0.326054 50.9723 0.157298C50.4428 -0.0114586 49.8794 -0.0450608 49.3336 0.0595512C49.125 0.096494 48.9229 0.163846 48.7339 0.259456C48.5212 0.331632 48.3195 0.432517 48.1342 0.559312L47.6344 0.959122C47.3311 1.27598 47.0933 1.64962 46.9347 2.0586C46.7553 2.4798 46.6645 2.93347 46.6682 3.39129C46.6735 3.82668 46.764 4.25681 46.9347 4.65736C47.104 5.06081 47.3406 5.43259 47.6344 5.75683ZM20.6473 45.4379C20.2907 45.791 20.0076 46.2114 19.8144 46.6746C19.6212 47.1378 19.5218 47.6347 19.5218 48.1366C19.5218 48.6385 19.6212 49.1354 19.8144 49.5986C20.0076 50.0618 20.2907 50.4821 20.6473 50.8353L39.7048 70.0261C40.058 70.3827 40.4783 70.6658 40.9416 70.859C41.4048 71.0522 41.9017 71.1517 42.4036 71.1517C42.9054 71.1517 43.4023 71.0522 43.8656 70.859C44.3288 70.6658 44.7491 70.3827 45.1023 70.0261L79.3526 35.6092C80.0904 34.8935 80.5137 33.914 80.5293 32.8861C80.5449 31.8583 80.1516 30.8664 79.4359 30.1285C78.7201 29.3907 77.7406 28.9674 76.7128 28.9518C75.6849 28.9362 74.693 29.3295 73.9552 30.0452L42.3702 61.6301L26.0447 45.4379C25.327 44.7258 24.357 44.3262 23.346 44.3262C22.335 44.3262 21.3649 44.7258 20.6473 45.4379Z" fill="white"/>
</svg>
