<svg width="152" height="39" viewBox="0 0 152 39" fill="none" xmlns="http://www.w3.org/2000/svg">
<path d="M3.52539 5.35352C3.40169 5.2793 3.19141 5.24219 2.89453 5.24219C2.6224 5.24219 2.41211 5.18034 2.26367 5.05664V4.72266C2.28841 4.40104 2.46159 4.20312 2.7832 4.12891C3.10482 4.05469 3.46354 4.01758 3.85938 4.01758C4.27995 4.01758 4.68815 4.02995 5.08398 4.05469C5.50456 4.07943 5.80143 4.02995 5.97461 3.90625C6.12305 3.95573 6.32096 4.01758 6.56836 4.0918C6.84049 4.14128 6.96419 4.26497 6.93945 4.46289C6.93945 4.63607 6.8776 4.7474 6.75391 4.79688C6.63021 4.84635 6.43229 4.89583 6.16016 4.94531C5.91276 4.99479 5.72721 5.09375 5.60352 5.24219C5.5293 5.36589 5.49219 5.47721 5.49219 5.57617C5.51693 5.65039 5.45508 5.73698 5.30664 5.83594C5.45508 6.80078 5.45508 7.92643 5.30664 9.21289C5.18294 10.4746 5.1582 11.5632 5.23242 12.4785C5.33138 13.3939 5.39323 14.334 5.41797 15.2988C5.34375 15.3483 5.30664 15.3854 5.30664 15.4102L5.38086 15.4844C5.45508 15.6823 5.46745 16.1029 5.41797 16.7461C5.39323 17.3646 5.45508 17.8223 5.60352 18.1191C5.55404 18.1686 5.5293 18.2305 5.5293 18.3047L5.56641 18.6758L5.45508 18.8242C5.45508 18.8984 5.49219 18.985 5.56641 19.084C5.66536 19.1829 5.64062 19.3066 5.49219 19.4551C5.51693 19.6035 5.55404 19.752 5.60352 19.9004C5.67773 20.0241 5.65299 20.1973 5.5293 20.4199L5.60352 21.3848C5.60352 21.9538 5.57878 22.5599 5.5293 23.2031C5.50456 23.8216 5.5293 24.4896 5.60352 25.207L5.49219 25.4668L5.64062 25.541C5.66536 25.7389 5.67773 26.0234 5.67773 26.3945V28.8809C5.67773 29.4993 5.62826 29.9199 5.5293 30.1426C5.45508 30.3405 5.41797 30.5384 5.41797 30.7363L5.38086 31.5527C5.80143 31.7259 6.19727 31.8001 6.56836 31.7754C6.93945 31.7507 7.22396 31.7383 7.42188 31.7383L8.08984 31.627L10.8359 31.8867L11.1328 31.998C11.2812 31.9238 11.5534 31.9362 11.9492 32.0352C12.2956 32.0599 12.543 31.9362 12.6914 31.6641C12.8646 31.3672 12.9635 31.1322 12.9883 30.959C13.013 30.7858 13.013 30.6497 12.9883 30.5508C12.9635 30.2539 13.0749 29.9323 13.3223 29.5859C13.7676 29.0664 14.1387 29.0911 14.4355 29.6602C14.6335 29.957 14.6953 30.1673 14.6211 30.291C14.3984 30.7363 14.3242 31.0208 14.3984 31.1445C14.4727 31.2682 14.5221 31.3672 14.5469 31.4414C14.4479 31.6146 14.3737 31.8249 14.3242 32.0723L14.3613 32.5547L14.25 32.9258C14.2253 33.0495 14.25 33.1855 14.3242 33.334C14.4232 33.6309 14.3861 33.9896 14.2129 34.4102L13.916 34.9668C13.6191 35.0905 13.3223 35.1523 13.0254 35.1523C12.778 35.1029 12.5677 35.0163 12.3945 34.8926C12.3203 34.7936 12.2832 34.6699 12.2832 34.5215C12.2832 34.3978 12.3203 34.3112 12.3945 34.2617C12.2461 34.1875 12.1842 34.1133 12.209 34.0391C12.2337 33.9648 12.2337 33.8535 12.209 33.7051C12.1348 33.5814 11.8132 33.4453 11.2441 33.2969C10.6751 33.1484 10.3659 33.0742 10.3164 33.0742C10.2669 33.0742 9.35156 33.0247 7.57031 32.9258L5.82617 33.1113C5.70247 33.1113 5.50456 33.099 5.23242 33.0742C4.98503 33.0495 4.77474 33.0866 4.60156 33.1855C4.45312 33.3092 4.30469 33.3835 4.15625 33.4082C4.00781 33.4577 3.84701 33.4701 3.67383 33.4453C3.27799 33.3464 2.98112 33.3464 2.7832 33.4453L2.67188 33.334C2.47396 33.3092 2.28841 33.3092 2.11523 33.334C1.94206 33.3587 1.78125 33.3587 1.63281 33.334C1.50911 33.3092 1.39779 33.2845 1.29883 33.2598C1.22461 33.2598 1.13802 33.235 1.03906 33.1855C0.890625 32.6165 1.03906 32.2578 1.48438 32.1094C1.63281 32.0846 1.76888 32.0723 1.89258 32.0723C2.04102 32.0475 2.17708 32.0104 2.30078 31.9609C2.44922 31.9115 2.58529 31.8743 2.70898 31.8496C2.83268 31.8001 2.95638 31.7507 3.08008 31.7012C3.1543 31.5527 3.19141 31.3548 3.19141 31.1074L3.37695 30.0312C3.37695 29.957 3.38932 29.8952 3.41406 29.8457C3.46354 29.7715 3.47591 29.7096 3.45117 29.6602C3.27799 29.3633 3.24089 28.8932 3.33984 28.25C3.46354 27.6068 3.50065 27.0625 3.45117 26.6172L3.33984 26.0234C3.33984 25.974 3.35221 25.9492 3.37695 25.9492C3.40169 25.9492 3.41406 25.9121 3.41406 25.8379C3.26562 25.5163 3.24089 24.9596 3.33984 24.168C3.4388 23.3516 3.47591 22.7331 3.45117 22.3125C3.45117 21.8672 3.4388 21.5703 3.41406 21.4219C3.38932 21.2734 3.40169 21.026 3.45117 20.6797L3.37695 19.8633C3.35221 19.5664 3.36458 19.2695 3.41406 18.9727C3.46354 18.651 3.45117 18.3542 3.37695 18.082L3.1543 14.2227C3.1543 14.1484 3.19141 14.0742 3.26562 14C3.21615 13.8516 3.20378 13.7155 3.22852 13.5918C3.25326 13.4434 3.25326 13.2826 3.22852 13.1094C3.20378 12.9362 3.20378 12.7878 3.22852 12.6641C3.25326 12.5156 3.24089 12.4414 3.19141 12.4414C3.14193 12.4167 3.11719 12.3424 3.11719 12.2188L3.26562 11.3281C3.29036 11.1055 3.27799 10.8333 3.22852 10.5117C3.20378 10.1654 3.24089 9.76953 3.33984 9.32422C3.58724 7.96354 3.64909 6.63997 3.52539 5.35352ZM18.2578 18.7871L18.5176 15.2246V14C18.5176 13.8516 18.5052 13.6784 18.4805 13.4805L18.3691 12.1445C18.3444 11.9219 18.332 11.6868 18.332 11.4395C18.3568 11.1921 18.3691 10.9818 18.3691 10.8086V10.3633C18.3691 10.2643 18.3568 10.1406 18.332 9.99219L18.2207 9.50977L18.2578 9.13867C18.2578 9.01497 18.2331 8.91602 18.1836 8.8418C18.1341 8.76758 18.0846 8.65625 18.0352 8.50781C18.0104 8.35938 18.0104 8.1862 18.0352 7.98828C18.0599 7.79036 18.0475 7.64193 17.998 7.54297C17.9733 7.41927 17.9238 7.33268 17.8496 7.2832C17.8001 7.23372 17.7507 7.18424 17.7012 7.13477C17.6517 7.06055 17.6146 6.98633 17.5898 6.91211C17.5898 6.83789 17.5404 6.76367 17.4414 6.68945C17.3672 6.59049 17.2311 6.50391 17.0332 6.42969C16.86 6.35547 16.6992 6.25651 16.5508 6.13281C16.5755 5.95964 16.5755 5.79883 16.5508 5.65039C16.5508 5.47721 16.6003 5.29167 16.6992 5.09375C16.9961 4.99479 17.3053 4.94531 17.627 4.94531C17.9733 4.94531 18.2331 5.01953 18.4062 5.16797C18.6042 5.29167 18.8145 5.35352 19.0371 5.35352C19.2845 5.35352 19.5443 5.24219 19.8164 5.01953C20.0391 5.09375 20.3483 5.13086 20.7441 5.13086L22.1172 5.09375L23.9355 5.24219L24.6035 5.16797C24.9499 5.16797 25.2839 5.21745 25.6055 5.31641C25.9271 5.41536 26.2611 5.46484 26.6074 5.46484L27.498 5.42773L28.0176 5.35352L28.6484 5.50195L29.3164 5.42773L29.9473 5.46484C30.1452 5.46484 30.3555 5.42773 30.5781 5.35352C30.776 4.93294 30.8997 4.47526 30.9492 3.98047C31.0234 3.48568 31.1842 3.0651 31.4316 2.71875C31.679 2.66927 31.8646 2.64453 31.9883 2.64453C32.1367 2.64453 32.248 2.70638 32.3223 2.83008C32.3965 2.95378 32.4336 3.05273 32.4336 3.12695L32.3594 3.34961L32.4707 4.16602L32.3965 4.83398L32.5078 5.91016L32.4336 6.57812L32.5449 7.17188L32.4336 7.91406L32.4707 8.17383C32.347 8.27279 32.248 8.40885 32.1738 8.58203C32.1243 8.75521 32.0625 8.90365 31.9883 9.02734C31.8398 9.10156 31.679 9.18815 31.5059 9.28711C31.3574 9.36133 31.2337 9.39844 31.1348 9.39844C31.0358 9.39844 30.9245 9.23763 30.8008 8.91602C30.6771 8.5944 30.6152 8.33464 30.6152 8.13672L30.6895 7.32031V7.09766C30.4915 6.89974 30.2441 6.80078 29.9473 6.80078L29.2793 6.98633L28.166 6.72656L27.2383 6.80078C27.1641 6.80078 27.1022 6.77604 27.0527 6.72656H26.3105L24.9375 6.65234C24.6654 6.65234 24.4427 6.68945 24.2695 6.76367C24.0964 6.81315 23.9108 6.86263 23.7129 6.91211C23.515 6.96159 23.2676 7.01107 22.9707 7.06055C22.6986 7.08529 22.4141 7.11003 22.1172 7.13477C21.8451 7.15951 21.5605 7.18424 21.2637 7.20898C20.9915 7.23372 20.7936 7.24609 20.6699 7.24609C20.5462 7.36979 20.4967 7.5306 20.5215 7.72852C20.5462 7.90169 20.5339 8.05013 20.4844 8.17383C20.4349 8.27279 20.3978 8.32227 20.373 8.32227C20.3483 8.32227 20.3359 8.40885 20.3359 8.58203L20.5586 10.4004V11.3652L20.5957 11.8848C20.5462 11.8848 20.5215 11.9466 20.5215 12.0703C20.5215 12.1693 20.6081 12.3919 20.7812 12.7383C20.7565 12.8372 20.7441 12.9733 20.7441 13.1465L20.6328 13.6289L20.7441 14.0742L20.707 14.9648L20.7812 16.0781L20.5215 20.2715C20.5215 20.6426 20.571 21.026 20.6699 21.4219C20.7689 21.8177 20.7812 22.1888 20.707 22.5352C20.9544 22.7826 21.4616 22.9062 22.2285 22.9062C23.0202 22.9062 23.5026 22.9186 23.6758 22.9434L24.1211 23.0176L24.4922 22.9434L25.3457 23.0918L26.2363 23.166C26.5579 23.166 26.7682 23.0299 26.8672 22.7578C26.9414 22.362 27.0404 22.1022 27.1641 21.9785C27.1641 21.6322 27.2259 21.3353 27.3496 21.0879L27.9062 20.9395C28.0299 20.9395 28.1413 21.0508 28.2402 21.2734C28.3639 21.4714 28.4258 21.6322 28.4258 21.7559L28.1289 24.0195L28.2773 25.0586C28.1042 25.3555 27.9681 25.6523 27.8691 25.9492C27.7207 25.974 27.5723 26.0234 27.4238 26.0977C27.2754 26.1471 27.127 26.1719 26.9785 26.1719C26.929 26.1224 26.8796 26.0605 26.8301 25.9863C26.8053 25.8874 26.7435 25.8008 26.6445 25.7266C26.5703 25.6276 26.5085 25.4792 26.459 25.2812C26.4342 25.0586 26.3971 24.8607 26.3477 24.6875C26.1745 24.5638 25.9766 24.5267 25.7539 24.5762C25.5312 24.6009 25.3457 24.5391 25.1973 24.3906C24.9993 24.4896 24.8262 24.5391 24.6777 24.5391C24.554 24.5391 24.418 24.4896 24.2695 24.3906C23.9727 24.4896 23.651 24.5391 23.3047 24.5391L22.0801 24.502H21.7461C21.5729 24.502 21.3997 24.5391 21.2266 24.6133C21.0781 24.6875 20.9792 24.7246 20.9297 24.7246C20.8802 24.6999 20.8307 24.7122 20.7812 24.7617L20.8184 24.9102L20.5957 26.7656L20.6699 27.8418L20.5586 28.4727L20.6699 28.918L20.5586 30.5879C20.5586 31.3796 20.8184 31.7754 21.3379 31.7754L22.043 31.7012L22.9336 31.8125C23.1315 31.8125 23.2923 31.7507 23.416 31.627C23.5892 31.7012 23.7871 31.7383 24.0098 31.7383L25.3828 31.627H25.6055C25.7044 31.627 25.8034 31.6517 25.9023 31.7012C26.1745 31.6022 26.5208 31.5527 26.9414 31.5527C27.362 31.5527 27.696 31.5404 27.9434 31.5156C28.2155 31.4909 28.4629 31.4661 28.6855 31.4414C28.9329 31.3919 29.168 31.3672 29.3906 31.3672L30.0215 31.4043C30.2936 31.4043 30.4544 31.3548 30.5039 31.2559C30.5781 31.1322 30.6771 31.0456 30.8008 30.9961C30.8255 30.8971 30.8503 30.7611 30.875 30.5879C30.974 29.8952 31.1966 29.5488 31.543 29.5488C31.7656 29.5488 31.9017 29.6107 31.9512 29.7344C32.0254 29.8581 32.1491 29.9818 32.3223 30.1055C32.3965 30.9961 32.4336 31.6022 32.4336 31.9238C32.3841 31.9238 32.3594 31.9486 32.3594 31.998L32.4336 32.8516C32.4336 33.1237 32.3717 33.3587 32.248 33.5566C32.2728 33.6803 32.2109 33.7422 32.0625 33.7422C31.9141 33.7422 31.7904 33.7669 31.6914 33.8164C31.6172 33.8906 31.5553 33.9648 31.5059 34.0391C31.4564 34.1133 31.3698 34.1504 31.2461 34.1504L30.6152 33.9277C30.5905 33.7051 30.5658 33.4577 30.541 33.1855C30.5163 32.9134 30.4421 32.6784 30.3184 32.4805C30.1699 32.5052 30.0215 32.5176 29.873 32.5176H29.3906C28.8958 32.5176 28.6237 32.5918 28.5742 32.7402C28.4753 32.6908 28.3639 32.666 28.2402 32.666C28.1413 32.666 28.0176 32.7155 27.8691 32.8145C27.7949 32.7402 27.696 32.7031 27.5723 32.7031L27.0527 32.7402L26.6445 32.666L26.2363 32.7402L25.6055 32.5547C25.3581 32.5547 24.9622 32.7402 24.418 33.1113L23.4531 32.8516C23.4036 32.8516 23.3542 32.8887 23.3047 32.9629C23.2799 33.0124 23.2181 33.0371 23.1191 33.0371L21.9688 32.8887L21.1895 33H20.5957C19.9525 33 19.5195 33.0866 19.2969 33.2598C19.1732 33.1608 19 33.1113 18.7773 33.1113L18.5176 33.1855L18.332 33.1113C18.1341 33.1113 17.9115 33.1855 17.6641 33.334C17.4414 33.4824 17.293 33.5566 17.2188 33.5566C16.724 33.5566 16.4766 33.2474 16.4766 32.6289V32.4434C16.5755 32.2454 16.8477 32.097 17.293 31.998C17.7383 31.8991 17.9857 31.8496 18.0352 31.8496C18.1341 31.6517 18.196 31.4167 18.2207 31.1445C18.2702 30.8724 18.3073 30.6497 18.332 30.4766C18.3568 30.3034 18.3691 30.1797 18.3691 30.1055L18.2578 29.4375L18.3691 28.9922L18.2578 28.6953L18.332 28.3242L18.2207 27.9902L18.332 27.0254C18.3568 26.9264 18.3568 26.8398 18.332 26.7656C18.332 26.6667 18.332 26.5553 18.332 26.4316L18.4434 25.4668L18.2949 24.5391C18.2949 24.4154 18.3073 24.304 18.332 24.2051C18.3568 24.1061 18.3815 23.9948 18.4062 23.8711C18.431 23.7227 18.431 23.5742 18.4062 23.4258C18.4062 23.2526 18.4062 23.0918 18.4062 22.9434V22.5352C18.3568 22.5352 18.332 22.5104 18.332 22.4609L18.4434 22.2012L18.332 21.7559C18.2578 21.4837 18.2207 21.1374 18.2207 20.7168C18.2454 20.2715 18.2578 19.9004 18.2578 19.6035V18.7871ZM32.582 35.3008C32.4336 35.3008 32.3594 35.1647 32.3594 34.8926C32.3594 34.6204 32.4583 34.3978 32.6562 34.2246C32.8047 34.1751 32.916 34.1504 32.9902 34.1504L33.584 34.2246L34.1406 34.1504L34.4746 34.1875C34.8457 34.1875 35.0931 33.7422 35.2168 32.8516C35.2663 32.5052 35.3158 32.1589 35.3652 31.8125C35.4147 31.4661 35.5137 31.2188 35.6621 31.0703C35.6126 31.0456 35.5879 30.9961 35.5879 30.9219C35.5879 30.8477 35.6126 30.7363 35.6621 30.5879C35.7116 30.4395 35.7487 30.291 35.7734 30.1426C35.8229 29.9941 35.8724 29.8581 35.9219 29.7344C35.9714 29.5859 36.0085 29.4746 36.0332 29.4004C36.0579 29.3262 36.0827 29.2643 36.1074 29.2148C36.1569 29.1406 36.194 29.0293 36.2188 28.8809C36.2682 28.7324 36.293 28.5716 36.293 28.3984C36.293 28.2253 36.3053 28.0768 36.3301 27.9531C36.3796 27.8047 36.4167 27.6934 36.4414 27.6191C36.4661 27.5449 36.5156 27.347 36.5898 27.0254C36.6888 26.7038 36.7754 26.2708 36.8496 25.7266C36.9238 25.1576 37.0352 24.6009 37.1836 24.0566C37.332 23.4876 37.4928 22.931 37.666 22.3867C37.8392 21.8177 37.9629 21.3477 38.0371 20.9766C38.1361 20.6055 38.1979 20.3333 38.2227 20.1602C38.2721 19.8138 38.3464 19.5417 38.4453 19.3438C38.569 19.1458 38.6432 18.9727 38.668 18.8242C38.7174 18.6758 38.7793 18.4779 38.8535 18.2305C38.9525 17.9831 39.0267 17.6615 39.0762 17.2656C39.1257 16.8451 39.1875 16.5234 39.2617 16.3008C39.3359 16.0781 39.373 15.9544 39.373 15.9297C39.3978 15.9049 39.4102 15.8307 39.4102 15.707C39.4102 15.5833 39.4225 15.4967 39.4473 15.4473C39.4967 15.3978 39.5462 15.3359 39.5957 15.2617L39.7812 14.2227L39.8555 14.1855L39.8184 14.0371C39.8184 13.6908 39.9544 13.2578 40.2266 12.7383C40.5234 12.194 40.6966 11.8971 40.7461 11.8477C40.7708 11.724 40.7708 11.6003 40.7461 11.4766C40.7461 11.2044 40.8079 11.0312 40.9316 10.957C41.0059 10.8828 41.0677 10.7096 41.1172 10.4375L41.2656 10.3633V10.1777C41.2656 10.0788 41.3398 9.99219 41.4883 9.91797C41.5378 9.72005 41.5749 9.53451 41.5996 9.36133C41.6491 9.18815 41.6986 9.01497 41.748 8.8418L42.0078 8.35938C42.0573 8.28516 42.082 8.21094 42.082 8.13672C42.082 8.03776 42.1068 7.9388 42.1562 7.83984C42.2305 7.71615 42.3294 7.59245 42.4531 7.46875C42.5768 7.34505 42.6634 7.17188 42.7129 6.94922C42.7871 6.70182 42.7995 6.45443 42.75 6.20703C42.7253 5.9349 42.7871 5.67513 42.9355 5.42773C43.084 5.35352 43.2943 5.31641 43.5664 5.31641C43.8633 5.31641 44.1107 5.48958 44.3086 5.83594C44.5065 6.15755 44.6055 6.49154 44.6055 6.83789C44.7292 7.01107 44.8158 7.19661 44.8652 7.39453C44.9395 7.59245 45.0508 7.75326 45.1992 7.87695V7.95117C45.1992 8.34701 45.3353 8.82943 45.6074 9.39844C45.9043 9.96745 46.0527 10.3757 46.0527 10.623C46.127 10.6973 46.2012 10.9076 46.2754 11.2539C46.3743 11.6003 46.5846 11.9342 46.9062 12.2559L46.8691 12.3672C46.8691 12.6393 46.931 12.8867 47.0547 13.1094C47.3268 13.5794 47.4629 14.0247 47.4629 14.4453C47.4629 14.8411 47.6608 15.571 48.0566 16.6348C48.4525 17.6738 48.6751 18.4284 48.7246 18.8984L48.6875 18.9355C48.6875 19.0098 48.7122 19.0469 48.7617 19.0469C48.9349 19.0964 49.0215 19.2448 49.0215 19.4922C49.0215 19.7396 49.1328 19.9993 49.3555 20.2715C49.4792 20.4941 49.5658 20.7415 49.6152 21.0137C49.6895 21.2611 49.8255 21.4837 50.0234 21.6816V21.7559C50.0234 21.929 50.0605 22.0898 50.1348 22.2383C50.209 22.3867 50.2585 22.5228 50.2832 22.6465C50.3327 22.7702 50.3574 22.8815 50.3574 22.9805C50.3822 23.0547 50.4069 23.1289 50.4316 23.2031C50.4811 23.2773 50.543 23.4258 50.6172 23.6484C50.7161 23.8464 50.8027 24.069 50.877 24.3164C50.9759 24.5638 51.0625 24.7865 51.1367 24.9844C51.2109 25.1823 51.248 25.306 51.248 25.3555V25.4668C51.3717 25.5905 51.446 25.7266 51.4707 25.875C51.4954 25.9987 51.5326 26.1348 51.582 26.2832C51.7305 26.4811 51.8171 26.7038 51.8418 26.9512C51.8665 27.1986 51.9036 27.4336 51.9531 27.6562C52.0273 27.8789 52.1016 28.0645 52.1758 28.2129C52.2747 28.3613 52.3613 28.5221 52.4355 28.6953C52.5345 28.8685 52.5964 29.0911 52.6211 29.3633C52.6706 29.6107 52.7201 29.8333 52.7695 30.0312C52.819 30.2044 52.8809 30.3776 52.9551 30.5508C53.054 30.6992 53.1283 30.8724 53.1777 31.0703C53.2272 31.2435 53.2396 31.429 53.2148 31.627C53.2148 31.998 53.2643 32.2826 53.3633 32.4805C53.487 32.6536 53.5859 32.8887 53.6602 33.1855C53.8086 33.5072 53.9076 33.804 53.957 34.0762C54.0065 34.3483 54.1178 34.5586 54.291 34.707L54.4023 34.7441C54.6992 34.7441 54.9095 34.6699 55.0332 34.5215C55.1816 34.3978 55.3796 34.3236 55.627 34.2988C55.9733 34.4967 56.1465 34.7689 56.1465 35.1152C56.1465 35.1895 56.1341 35.2513 56.1094 35.3008C56.1589 35.4492 56.0599 35.5482 55.8125 35.5977C55.5898 35.6719 55.429 35.7214 55.3301 35.7461C55.1322 35.8945 54.9466 35.9564 54.7734 35.9316C54.625 35.9316 54.5013 35.944 54.4023 35.9688C54.3281 35.9935 54.2663 36.0182 54.2168 36.043C54.1921 36.0677 54.1549 36.0924 54.1055 36.1172H53.8086C53.6849 36.1172 53.5488 36.179 53.4004 36.3027C53.2767 36.4264 53.1654 36.4883 53.0664 36.4883C52.9674 36.4883 52.7324 36.4635 52.3613 36.4141L51.2109 36.6367C51.0872 36.6367 51.0007 36.6243 50.9512 36.5996C50.778 36.6491 50.6296 36.7109 50.5059 36.7852C50.3822 36.8594 50.2214 36.8965 50.0234 36.8965C49.9492 36.7728 49.875 36.6491 49.8008 36.5254C49.7266 36.4017 49.6895 36.2533 49.6895 36.0801C49.7637 35.8574 49.9368 35.6966 50.209 35.5977C50.4811 35.4987 50.7409 35.3997 50.9883 35.3008C51.2357 35.2266 51.4583 35.14 51.6562 35.041C51.8542 34.9668 51.9531 34.8431 51.9531 34.6699L51.582 33.334C51.5326 33.2598 51.4831 33.1855 51.4336 33.1113C51.3841 33.0618 51.3346 32.9753 51.2852 32.8516C51.2604 32.7279 51.248 32.5794 51.248 32.4062C51.248 32.2083 51.2233 32.0352 51.1738 31.8867C51.1243 31.7383 51.0749 31.5898 51.0254 31.4414C50.9759 31.293 50.9264 31.1569 50.877 31.0332C50.7533 30.9342 50.6048 30.7858 50.4316 30.5879C50.2585 30.3652 50.0853 30.2539 49.9121 30.2539L49.4297 30.3281L48.9844 30.2539C48.8854 30.2539 48.7865 30.2786 48.6875 30.3281C48.3906 30.4271 48.0319 30.4766 47.6113 30.4766H46.9062L46.2754 30.4023L46.0898 30.4766L45.4961 30.3281L45.0879 30.3652C44.9889 30.3652 44.9023 30.3281 44.8281 30.2539C44.5312 30.4023 44.3333 30.4766 44.2344 30.4766L43.3809 30.3281L42.9727 30.4023L42.416 30.2539L41.4141 30.3281H40.8203C39.5339 30.3281 38.6556 30.4889 38.1855 30.8105V30.959H38.0371C37.8639 31.1322 37.6536 31.6641 37.4062 32.5547C37.1589 33.4453 37.0352 33.9525 37.0352 34.0762C37.0352 34.1999 37.1094 34.2988 37.2578 34.373C37.431 34.4473 37.5794 34.4844 37.7031 34.4844C37.8268 34.4844 38.0371 34.4473 38.334 34.373C38.5566 34.5215 38.7546 34.707 38.9277 34.9297C38.903 35.1276 38.8535 35.3008 38.7793 35.4492C38.7051 35.5977 38.6309 35.7461 38.5566 35.8945L37.0723 35.709L36.8125 35.5977L36.2559 35.6719L35.5508 35.4863L35.1797 35.5605L34.7715 35.5234C34.5736 35.5234 34.4622 35.5605 34.4375 35.6348C34.388 35.6348 34.3633 35.6224 34.3633 35.5977C34.3633 35.5729 34.3385 35.5605 34.2891 35.5605L33.7324 35.7461C33.6335 35.7461 33.4603 35.709 33.2129 35.6348C32.9655 35.5853 32.8418 35.4863 32.8418 35.3379C32.8418 35.2637 32.8047 35.2266 32.7305 35.2266C32.681 35.276 32.6315 35.3008 32.582 35.3008ZM46.2012 28.9551C46.3001 28.9551 46.3743 28.9427 46.4238 28.918C46.498 28.8932 46.6589 28.9674 46.9062 29.1406C47.1784 29.0417 47.4382 28.9922 47.6855 28.9922H48.5391C48.9102 28.9922 49.2812 28.9551 49.6523 28.8809C49.6276 28.7819 49.6895 28.6829 49.8379 28.584V28.4727C49.8379 28.2005 49.7884 27.9531 49.6895 27.7305C49.6152 27.4831 49.5534 27.2728 49.5039 27.0996C49.4792 26.9264 49.4668 26.7904 49.4668 26.6914C49.4915 26.5924 49.4792 26.5059 49.4297 26.4316C49.3802 26.3327 49.3307 26.2461 49.2812 26.1719C49.1576 26.0234 49.071 25.8008 49.0215 25.5039C48.9967 25.3307 48.9349 25.1576 48.8359 24.9844C48.7617 24.8112 48.7246 24.6751 48.7246 24.5762C48.7246 24.4772 48.6999 24.3535 48.6504 24.2051L47.834 22.4609C47.8092 22.4115 47.7969 22.3867 47.7969 22.3867C47.8216 22.362 47.834 22.3125 47.834 22.2383C47.834 22.1641 47.6979 21.9167 47.4258 21.4961C47.1784 21.0755 47.0671 20.8034 47.0918 20.6797C47.1413 20.556 47.1289 20.3952 47.0547 20.1973C46.9805 19.9746 46.8815 19.7025 46.7578 19.3809C46.6341 19.0592 46.5475 18.7253 46.498 18.3789C46.3743 18.3294 46.3125 18.2799 46.3125 18.2305C46.3372 18.1562 46.3249 18.0573 46.2754 17.9336L46.127 17.7852C46.0775 17.6615 46.0527 17.5254 46.0527 17.377C46.0527 17.2285 46.0404 17.0801 46.0156 16.9316C45.7188 16.5605 45.5703 16.0534 45.5703 15.4102L45.1992 14.6309C45.2734 14.4824 45.3105 14.3464 45.3105 14.2227C45.3105 14.099 45.2487 14.0124 45.125 13.9629C45.026 13.8887 44.9766 13.7279 44.9766 13.4805C44.9766 13.2331 44.9023 12.998 44.7539 12.7754C44.6055 12.5527 44.5312 12.2806 44.5312 11.959C44.5065 11.9095 44.457 11.8848 44.3828 11.8848C44.3333 11.86 44.2591 11.7982 44.1602 11.6992C44.0612 11.5755 43.9622 11.4271 43.8633 11.2539C43.7891 11.0807 43.6406 10.9323 43.418 10.8086V10.7344C43.3438 10.7344 43.3066 10.7591 43.3066 10.8086C43.1582 10.8086 43.0469 11.0065 42.9727 11.4023C42.8984 11.7982 42.7624 12.1074 42.5645 12.3301C42.5397 12.429 42.5273 12.528 42.5273 12.627C42.5521 12.7012 42.5397 12.8249 42.4902 12.998C42.4408 13.1712 42.3789 13.4062 42.3047 13.7031C42.1562 13.901 42.0573 14.1608 42.0078 14.4824C41.9831 14.804 41.8965 15.0885 41.748 15.3359C41.7233 15.4596 41.6986 15.5957 41.6738 15.7441C41.6738 15.8926 41.6491 16.0286 41.5996 16.1523C41.5749 16.2513 41.5378 16.3503 41.4883 16.4492C41.4635 16.5234 41.4388 16.61 41.4141 16.709L41.1914 18.6016C40.9193 18.9974 40.7956 19.418 40.8203 19.8633C40.7461 19.9128 40.6966 19.987 40.6719 20.0859C40.6719 20.1602 40.6348 20.222 40.5605 20.2715C40.4863 20.9147 40.2018 21.7682 39.707 22.832V23.5C39.5586 23.7227 39.4102 24.2174 39.2617 24.9844C39.138 25.7513 39.0762 26.1842 39.0762 26.2832C39.0267 26.3327 38.9896 26.4069 38.9648 26.5059C38.9401 26.5801 38.8659 26.6419 38.7422 26.6914C38.7669 26.7656 38.7793 26.8646 38.7793 26.9883L38.5566 28.584C38.7793 28.7819 39.0885 28.8809 39.4844 28.8809L42.1562 28.7695C42.3047 28.7695 42.4531 28.7695 42.6016 28.7695L44.1602 28.9551L45.4961 28.8809L46.2012 28.9551ZM77.1875 33.4453L76.9648 33.4082C76.7669 33.0866 76.668 32.8639 76.668 32.7402C76.668 32.6165 76.7051 32.4681 76.7793 32.2949C76.8783 32.097 76.9525 31.9857 77.002 31.9609C77.0762 31.9115 77.1257 31.8991 77.1504 31.9238C77.1751 31.9238 77.2122 31.8867 77.2617 31.8125C77.3359 31.7135 77.5091 31.5775 77.7812 31.4043C78.0534 31.2311 78.2884 31.1445 78.4863 31.1445C78.709 31.1445 78.9193 31.2188 79.1172 31.3672C79.3398 31.5156 79.5749 31.6022 79.8223 31.627C79.946 31.6764 80.0078 31.7754 80.0078 31.9238C80.0326 32.0723 80.082 32.2083 80.1562 32.332H80.3047C80.3542 32.3815 80.3789 32.4681 80.3789 32.5918C80.4036 32.7155 80.4284 32.8145 80.4531 32.8887C80.5026 32.9629 80.5645 33.0247 80.6387 33.0742C80.7129 33.1237 80.7624 33.1855 80.7871 33.2598C80.8366 33.3587 80.8366 33.4701 80.7871 33.5938C80.7624 33.7422 80.8118 33.8535 80.9355 33.9277C80.9108 34.002 80.8984 34.1257 80.8984 34.2988L80.9355 35.3008C80.9355 35.7461 80.849 36.0059 80.6758 36.0801C80.5273 36.179 80.4036 36.3398 80.3047 36.5625C80.2305 36.7852 80.1439 36.9583 80.0449 37.082C79.9707 37.2057 79.8717 37.2552 79.748 37.2305C79.6243 37.2305 79.5625 37.2923 79.5625 37.416C79.4635 37.5645 79.3398 37.6882 79.1914 37.7871H79.0801L78.6719 37.7129C78.5729 37.7871 78.4616 37.8366 78.3379 37.8613C78.2389 37.9108 78.1647 37.9603 78.1152 38.0098C78.0658 38.0592 78.0163 38.084 77.9668 38.084L77.6328 38.0098C77.5833 38.1335 77.4967 38.1829 77.373 38.1582C77.2741 38.1582 77.1504 38.1582 77.002 38.1582C76.8535 38.1582 76.7546 38.1953 76.7051 38.2695C76.6556 38.3685 76.4824 38.418 76.1855 38.418C75.9134 38.418 75.6165 38.2572 75.2949 37.9355C74.9486 37.8861 74.6641 37.7253 74.4414 37.4531C74.2188 37.2057 74.0332 37.0078 73.8848 36.8594C73.7611 36.7357 73.6745 36.6738 73.625 36.6738C73.5755 36.6738 73.526 36.6491 73.4766 36.5996C73.4271 36.5501 73.4023 36.5007 73.4023 36.4512C73.4271 36.4017 73.4147 36.3522 73.3652 36.3027C73.3405 36.278 73.3158 36.2656 73.291 36.2656C73.2663 36.2904 73.2292 36.2656 73.1797 36.1914C73.1302 36.1419 73.0931 36.1048 73.0684 36.0801C73.0684 36.0553 73.0065 36.0182 72.8828 35.9688C72.8333 35.8945 72.8086 35.8203 72.8086 35.7461C72.8333 35.6719 72.8086 35.5977 72.7344 35.5234C72.6849 35.474 72.6107 35.375 72.5117 35.2266C72.1901 34.6576 71.9551 34.2988 71.8066 34.1504C71.7572 34.002 71.7077 33.8411 71.6582 33.668C71.6335 33.5195 71.5592 33.4082 71.4355 33.334C71.4355 33.0866 71.3737 32.8639 71.25 32.666C71.1263 32.4681 70.9902 32.0352 70.8418 31.3672C70.6934 30.6745 70.3099 29.623 69.6914 28.2129L69.7285 27.7305C69.679 27.6562 69.5801 27.5078 69.4316 27.2852C69.3079 27.0378 69.2214 26.877 69.1719 26.8027C69.1224 26.7285 69.0977 26.6419 69.0977 26.543C69.1224 26.444 69.11 26.3451 69.0605 26.2461L68.9492 26.1719C68.875 25.974 68.8379 25.7884 68.8379 25.6152V25.5781L68.6895 25.5039C68.6647 25.4049 68.6523 25.306 68.6523 25.207C68.6523 25.0339 68.5781 24.8607 68.4297 24.6875C68.306 24.4896 68.1328 24.1309 67.9102 23.6113L67.7617 23.5371C67.7122 23.4134 67.6875 23.2897 67.6875 23.166C67.6875 23.0176 67.6628 22.8815 67.6133 22.7578C67.4896 22.4115 67.2669 22.0775 66.9453 21.7559C66.6484 21.4095 66.3516 21.2363 66.0547 21.2363H66.0176L65.9434 21.0508C65.8444 21.0013 65.7331 20.9642 65.6094 20.9395C65.5104 20.89 65.4238 20.8281 65.3496 20.7539C65.2754 20.7786 65.1641 20.791 65.0156 20.791L64.0137 20.7168C63.791 20.7168 63.6055 20.7539 63.457 20.8281C63.2591 20.8281 63.1354 20.791 63.0859 20.7168C63.0612 20.6178 62.987 20.5436 62.8633 20.4941C62.5417 20.8405 62.1458 21.0013 61.6758 20.9766C61.4531 21.4714 61.3418 22.0156 61.3418 22.6094C61.3418 23.1784 61.3913 23.6361 61.4902 23.9824C61.6139 24.304 61.6758 24.5267 61.6758 24.6504L61.5645 25.0215L61.7129 25.541L61.6758 26.0234L61.8613 27.3223L61.75 29.4375L61.5273 32.6289C61.5273 33.2721 61.6016 33.8659 61.75 34.4102H61.8242L62.6406 34.3359C62.8385 34.3359 62.987 34.3854 63.0859 34.4844C63.1107 34.5833 63.123 34.7194 63.123 34.8926V35.1523C63.0983 35.1771 63.0117 35.2142 62.8633 35.2637C62.7148 35.3132 62.5417 35.375 62.3438 35.4492C62.1706 35.5482 61.985 35.6224 61.7871 35.6719C61.6139 35.7461 61.4902 35.8203 61.416 35.8945C61.2676 35.8451 61.1562 35.8203 61.082 35.8203L60.1914 35.9688L59.375 35.8945C59.2018 35.8945 59.0905 35.9193 59.041 35.9688C58.9915 36.043 58.8926 36.0801 58.7441 36.0801C58.5957 36.0801 58.5091 36.1048 58.4844 36.1543C58.4844 36.2038 58.4473 36.2409 58.373 36.2656C58.2988 36.2904 58.2246 36.2904 58.1504 36.2656C58.0762 36.2409 58.002 36.2285 57.9277 36.2285H57.8906C57.8659 36.3275 57.7793 36.377 57.6309 36.377H57.4453C57.3711 36.0801 57.334 35.8327 57.334 35.6348C57.334 35.2884 57.6309 35.0781 58.2246 35.0039C58.8184 34.9544 59.1771 34.8555 59.3008 34.707V34.5957L59.1523 32.5176L59.3008 31.1445L59.1895 30.4766L59.3008 30.0312L59.2266 29.6602L59.3008 28.3984C59.3008 27.6068 59.2637 27.013 59.1895 26.6172L59.041 25.8008L59.0781 25.2812C59.0781 25.1576 59.0534 25.0339 59.0039 24.9102C58.9544 24.7617 58.9173 24.6009 58.8926 24.4277C58.8678 24.2546 58.8555 24.069 58.8555 23.8711C58.8802 23.6732 58.8555 23.4753 58.7812 23.2773C58.7812 23.0299 58.8307 22.8568 58.9297 22.7578C58.806 22.5104 58.7441 22.1764 58.7441 21.7559L58.8555 20.0859L58.707 18.7871L58.7441 16.3379L58.6699 15.2988L58.707 14.5195L58.5957 13.7773C58.5957 13.5052 58.6204 13.2454 58.6699 12.998C58.7194 12.7507 58.7565 12.4414 58.7812 12.0703C58.8307 11.6745 58.8678 11.2292 58.8926 10.7344C58.9173 10.2396 58.9544 9.83138 59.0039 9.50977C59.0781 9.16341 59.1276 8.91602 59.1523 8.76758C59.2018 8.61914 59.2266 8.44596 59.2266 8.24805L59.1895 7.91406C59.0905 7.69141 58.8802 7.58008 58.5586 7.58008C58.2617 7.58008 58.0514 7.60482 57.9277 7.6543C57.8288 7.70378 57.7174 7.75326 57.5938 7.80273C57.4948 7.85221 57.334 7.90169 57.1113 7.95117C56.8887 7.97591 56.5794 8.02539 56.1836 8.09961C55.7878 8.14909 55.4785 8.17383 55.2559 8.17383C55.0332 8.17383 54.8724 8.16146 54.7734 8.13672C54.625 7.98828 54.5508 7.76562 54.5508 7.46875C54.5508 7.17188 54.6992 6.97396 54.9961 6.875C55.3177 6.77604 55.6764 6.71419 56.0723 6.68945C56.4681 6.63997 56.8639 6.49154 57.2598 6.24414C57.3092 6.26888 57.3835 6.28125 57.4824 6.28125L58.5215 6.13281C58.571 6.13281 58.5957 6.10807 58.5957 6.05859C58.6204 6.00911 58.707 5.97201 58.8555 5.94727C59.0286 5.89779 59.2389 5.87305 59.4863 5.87305C59.7585 5.84831 60.043 5.8112 60.3398 5.76172L60.7852 5.61328C60.9089 5.58854 61.0202 5.58854 61.1191 5.61328C61.2181 5.61328 61.3542 5.61328 61.5273 5.61328C61.7005 5.61328 61.8613 5.58854 62.0098 5.53906C62.1582 5.48958 62.3066 5.4401 62.4551 5.39062C62.6035 5.46484 62.752 5.50195 62.9004 5.50195L64.3477 5.31641H65.4238C65.9681 5.31641 66.6361 5.4401 67.4277 5.6875C68.2441 5.91016 68.7018 6.02148 68.8008 6.02148C68.8997 6.02148 68.9987 6.04622 69.0977 6.0957C69.2214 6.12044 69.3079 6.16992 69.3574 6.24414C69.4316 6.29362 69.5182 6.3431 69.6172 6.39258C69.7409 6.44206 69.8398 6.4668 69.9141 6.4668C70.013 6.4668 70.112 6.49154 70.2109 6.54102L70.2852 6.68945C70.7305 6.91211 71.015 7.11003 71.1387 7.2832C71.2624 7.45638 71.3984 7.55534 71.5469 7.58008L72.1777 8.61914C72.2272 8.66862 72.2767 8.7181 72.3262 8.76758C72.3757 8.79232 72.4251 8.8418 72.4746 8.91602C72.5241 8.96549 72.5365 9.02734 72.5117 9.10156C72.5117 9.17578 72.5241 9.25 72.5488 9.32422C72.5983 9.3737 72.6478 9.42318 72.6973 9.47266C72.7715 9.4974 72.8333 9.54688 72.8828 9.62109C72.9323 9.67057 72.9447 9.73242 72.9199 9.80664C72.9199 9.88086 72.9323 9.95508 72.957 10.0293C73.0065 10.1035 73.0436 10.1654 73.0684 10.2148C73.1178 10.2643 73.1549 10.3138 73.1797 10.3633C73.2292 10.4128 73.2415 10.487 73.2168 10.5859C73.2168 10.6602 73.2292 10.7839 73.2539 10.957C73.3034 11.1055 73.3776 11.291 73.4766 11.5137C73.6003 11.7363 73.6621 12.0208 73.6621 12.3672C73.6621 12.6888 73.6126 13.0475 73.5137 13.4434C73.4147 13.8145 73.3405 14.1855 73.291 14.5566C73.1426 14.6803 73.056 14.8288 73.0312 15.002C73.0312 15.1751 72.9941 15.3112 72.9199 15.4102C72.8457 15.5091 72.7591 15.5833 72.6602 15.6328C72.5859 15.6823 72.5241 15.7441 72.4746 15.8184C72.4251 15.8678 72.388 15.9421 72.3633 16.041C72.3385 16.1152 72.3014 16.1771 72.252 16.2266L72.1035 16.3008C72.0293 16.4492 71.9551 16.5977 71.8809 16.7461C71.8066 16.8698 71.7448 16.9935 71.6953 17.1172C71.5221 17.2656 71.3366 17.4017 71.1387 17.5254C70.9655 17.6243 70.7923 17.748 70.6191 17.8965C70.446 18.0202 70.2852 18.1562 70.1367 18.3047C69.9883 18.4284 69.8398 18.5397 69.6914 18.6387C69.543 18.7129 69.4193 18.75 69.3203 18.75C69.2461 18.75 69.1471 18.7747 69.0234 18.8242C68.8997 18.8737 68.776 18.9603 68.6523 19.084C68.5286 19.2077 68.4049 19.3314 68.2812 19.4551H68.0215C67.7493 19.4551 67.5514 19.4922 67.4277 19.5664C67.4772 19.6406 67.6009 19.7767 67.7988 19.9746C68.0215 20.1725 68.1947 20.3457 68.3184 20.4941C68.4668 20.6178 68.5658 20.6797 68.6152 20.6797C68.6895 20.6549 68.7389 20.6549 68.7637 20.6797C68.7884 20.7292 68.7884 20.7663 68.7637 20.791C68.7637 20.8158 68.8008 20.9023 68.875 21.0508C68.9492 21.1745 69.0605 21.3105 69.209 21.459C69.3574 21.5827 69.5182 21.7806 69.6914 22.0527C69.8646 22.3249 70.0254 22.6589 70.1738 23.0547C70.347 23.4505 70.4831 23.7598 70.582 23.9824C70.7057 24.2051 70.7799 24.3411 70.8047 24.3906C70.8542 24.4154 70.9408 24.5514 71.0645 24.7988C71.2129 25.0462 71.4108 25.541 71.6582 26.2832C71.9303 27.0254 72.1406 27.6191 72.2891 28.0645C72.4622 28.5098 72.5983 28.8932 72.6973 29.2148C72.7962 29.5117 72.8581 29.7467 72.8828 29.9199C72.9076 30.0931 72.9447 30.2539 72.9941 30.4023L73.1426 30.4766C73.1921 30.5508 73.2292 30.724 73.2539 30.9961C73.2786 31.2682 73.3158 31.4661 73.3652 31.5898L73.4766 31.627C73.5013 31.7012 73.5137 31.8372 73.5137 32.0352C73.5137 32.2331 73.5508 32.3815 73.625 32.4805C73.724 32.5547 73.7982 32.666 73.8477 32.8145C73.8971 32.9382 73.9219 33.0495 73.9219 33.1484C73.9466 33.2474 73.9837 33.3711 74.0332 33.5195C74.1074 33.668 74.2064 33.8288 74.3301 34.002C74.4785 34.1999 74.5527 34.4102 74.5527 34.6328L75.2207 35.5605C75.2702 35.6348 75.3073 35.709 75.332 35.7832C75.3815 35.8822 75.4681 36.0182 75.5918 36.1914C75.7155 36.3646 75.9629 36.5501 76.334 36.748C76.7298 36.9707 77.0391 37.082 77.2617 37.082C77.5091 37.082 77.6823 37.0573 77.7812 37.0078C77.8802 36.9583 78.0781 36.8841 78.375 36.7852C78.6966 36.6862 79.0059 36.4635 79.3027 36.1172C79.377 35.8945 79.4883 35.709 79.6367 35.5605C79.7852 35.4121 79.8594 35.2513 79.8594 35.0781L79.748 34.5586V34.4844C79.7975 34.4349 79.8223 34.3978 79.8223 34.373L79.6367 33.8906C79.6367 33.8659 79.6615 33.7917 79.7109 33.668C79.5872 33.4948 79.4759 33.334 79.377 33.1855C79.278 33.0371 79.1048 32.9382 78.8574 32.8887L78.8945 32.8516C78.8945 32.7526 78.8327 32.7155 78.709 32.7402C78.5853 32.7402 78.5234 32.6908 78.5234 32.5918C78.474 32.666 78.4245 32.7031 78.375 32.7031H78.1895C78.041 32.7031 77.9049 32.8268 77.7812 33.0742C77.6576 33.3216 77.4596 33.4453 77.1875 33.4453ZM70.9902 13.7031C70.916 13.6536 70.8789 13.4186 70.8789 12.998C70.8789 12.5527 70.9284 12.2311 71.0273 12.0332C70.9036 11.959 70.8418 11.8477 70.8418 11.6992L70.582 10.623C70.582 10.5488 70.5944 10.487 70.6191 10.4375C70.4707 10.2396 70.3594 10.0293 70.2852 9.80664C70.2357 9.58398 70.1615 9.3737 70.0625 9.17578C69.9635 9.10156 69.877 9.02734 69.8027 8.95312C69.7285 8.87891 69.6172 8.81706 69.4688 8.76758C69.4688 8.34701 69.2956 8.05013 68.9492 7.87695C68.8008 7.80273 68.64 7.74089 68.4668 7.69141C68.2936 7.61719 68.1328 7.5306 67.9844 7.43164C67.8854 7.45638 67.737 7.46875 67.5391 7.46875C67.3411 7.46875 67.1309 7.41927 66.9082 7.32031C66.7103 7.19661 66.3392 7.13477 65.7949 7.13477C65.2507 7.13477 64.6198 7.20898 63.9023 7.35742C63.1849 7.50586 62.4674 7.60482 61.75 7.6543C61.6758 7.90169 61.5892 8.14909 61.4902 8.39648C61.416 8.61914 61.3789 8.77995 61.3789 8.87891C61.2057 9.1263 61.1191 9.54688 61.1191 10.1406L60.9707 12.7383L61.1562 13.9258L61.082 14.7051C61.082 15.7194 61.1191 16.4863 61.1934 17.0059C61.2923 17.5254 61.3418 17.8594 61.3418 18.0078L61.2676 18.7129C61.2676 18.7624 61.2923 18.9232 61.3418 19.1953C61.416 19.4674 61.4779 19.6159 61.5273 19.6406L61.8242 19.6777C62.0221 19.6777 62.2077 19.6406 62.3809 19.5664C62.554 19.4922 62.8509 19.4056 63.2715 19.3066C63.6921 19.2077 64.125 19.1582 64.5703 19.1582C65.0404 19.1582 65.3743 19.1829 65.5723 19.2324C65.8691 18.985 66.2155 18.8242 66.6113 18.75C67.2051 18.6758 67.6999 18.4408 68.0957 18.0449C68.2441 17.847 68.4544 17.6862 68.7266 17.5625C68.776 17.513 68.8008 17.4635 68.8008 17.4141C68.8008 17.3646 68.8255 17.3151 68.875 17.2656C68.9245 17.2161 68.974 17.1914 69.0234 17.1914C69.0729 17.1914 69.1595 17.1543 69.2832 17.0801C69.4069 16.9811 69.5801 16.7585 69.8027 16.4121C70.0501 16.041 70.2233 15.7441 70.3223 15.5215L70.4707 15.1504C70.6934 15.0267 70.7923 14.8659 70.7676 14.668C70.7428 14.4701 70.7305 14.3216 70.7305 14.2227L70.9902 13.7031ZM97.375 3.86914C97.8945 3.86914 98.1543 4.00521 98.1543 4.27734C98.1543 4.45052 98.1048 4.59896 98.0059 4.72266L97.5977 5.09375C97.4492 5.24219 97.2884 5.31641 97.1152 5.31641C96.9668 5.31641 96.8678 5.29167 96.8184 5.24219C96.7689 5.16797 96.6947 5.10612 96.5957 5.05664C96.373 5.18034 96.138 5.2793 95.8906 5.35352C95.6432 5.40299 95.4206 5.50195 95.2227 5.65039C95.099 5.92253 95.0371 6.2194 95.0371 6.54102C95.0618 6.83789 95.0495 7.08529 95 7.2832C94.9753 7.45638 94.9134 7.61719 94.8145 7.76562C94.7155 7.88932 94.666 7.96354 94.666 7.98828C94.666 8.01302 94.6784 8.26042 94.7031 8.73047C94.7279 9.20052 94.666 9.58398 94.5176 9.88086C94.3939 10.153 94.332 10.4004 94.332 10.623L94.4434 11.4395V11.5508L94.5918 11.6992V11.7363L94.3691 13.0723L94.4434 13.332L94.332 13.7402C94.2826 14.0124 94.2578 14.2721 94.2578 14.5195V15.3359C94.2578 15.6576 94.2083 15.9421 94.1094 16.1895C94.0104 16.4121 93.9609 16.6224 93.9609 16.8203L94.0352 17.8594V18.2676C94.0352 18.416 94.0104 18.5273 93.9609 18.6016C93.9115 18.6758 93.8867 18.7376 93.8867 18.7871L93.9609 18.8613C93.9115 19.1087 93.8867 19.2943 93.8867 19.418L93.9609 19.9375L93.7383 21.6445L93.8125 21.9785L93.7383 22.2754L93.9609 22.8691C93.9362 22.8939 93.9238 23.0423 93.9238 23.3145C93.9238 23.5618 93.8867 23.7227 93.8125 23.7969C93.8867 24.0195 93.9238 24.2422 93.9238 24.4648L93.8496 25.6895C93.8496 25.9121 93.862 26.0729 93.8867 26.1719C93.8372 26.2708 93.8125 26.3574 93.8125 26.4316L93.9609 26.8027L93.7754 27.0625C93.8496 27.2604 93.9238 27.4583 93.998 27.6562C94.0723 27.8542 94.1341 28.0521 94.1836 28.25C93.9362 28.4479 93.7878 28.6706 93.7383 28.918C93.7135 28.8932 93.6517 28.8809 93.5527 28.8809C93.4538 28.8809 93.3424 28.9303 93.2188 29.0293C93.0951 29.1283 92.959 29.1777 92.8105 29.1777L92.7734 29.1406C92.5755 29.1159 92.4147 28.9674 92.291 28.6953C92.1673 28.4232 92.0312 28.2005 91.8828 28.0273C91.7591 27.8294 91.6478 27.582 91.5488 27.2852C91.4251 27.112 91.2767 26.9264 91.1035 26.7285C90.9551 26.5059 90.8809 26.2956 90.8809 26.0977C90.6829 26.0482 90.5592 25.9245 90.5098 25.7266C90.485 25.5039 90.4232 25.3307 90.3242 25.207C90.151 25.1823 90.1016 25.0833 90.1758 24.9102C90.1016 24.8359 90.015 24.7988 89.916 24.7988C89.8418 24.7741 89.7552 24.6751 89.6562 24.502C89.582 24.3288 89.5078 24.2174 89.4336 24.168C89.3594 24.0938 89.2975 24.0195 89.248 23.9453C89.1986 23.8464 89.1738 23.7721 89.1738 23.7227C89.1986 23.6732 89.1367 23.5495 88.9883 23.3516C88.8646 23.1536 88.6914 22.9681 88.4688 22.7949C88.2956 22.597 88.1719 22.3743 88.0977 22.127C88.0482 21.8796 87.8626 21.6445 87.541 21.4219C87.4915 21.1497 87.3555 20.9147 87.1328 20.7168C86.9102 20.4941 86.8236 20.2344 86.873 19.9375C86.6257 19.7396 86.4772 19.5911 86.4277 19.4922C86.3783 19.3685 86.3288 19.2695 86.2793 19.1953C86.2298 19.1211 86.168 19.0345 86.0938 18.9355C86.0443 18.8366 85.9948 18.75 85.9453 18.6758C85.8958 18.6016 85.8711 18.5397 85.8711 18.4902C85.8711 18.4408 85.8958 18.3913 85.9453 18.3418C85.9206 18.2923 85.8958 18.2552 85.8711 18.2305C85.8464 18.181 85.8092 18.1191 85.7598 18.0449C85.735 17.9707 85.6979 17.9089 85.6484 17.8594C85.599 17.8099 85.5495 17.7604 85.5 17.7109C85.4753 17.6367 85.4629 17.5749 85.4629 17.5254C85.4876 17.4759 85.4753 17.4264 85.4258 17.377C85.2526 17.3027 85.1413 17.1543 85.0918 16.9316C85.0423 16.6842 84.9557 16.4863 84.832 16.3379C84.7083 16.0163 84.5599 15.7318 84.3867 15.4844C84.2383 15.2122 84.1393 14.9648 84.0898 14.7422C84.0404 14.5195 83.9909 14.4082 83.9414 14.4082C83.9167 14.4082 83.8796 14.3835 83.8301 14.334C83.7806 14.2845 83.7682 14.235 83.793 14.1855C83.8177 14.1361 83.793 14.0866 83.7188 14.0371C83.6445 13.9134 83.5456 13.8268 83.4219 13.7773C83.3229 13.7031 83.224 13.5794 83.125 13.4062C83.026 13.2331 82.9395 13.0228 82.8652 12.7754C82.791 12.528 82.6055 12.3919 82.3086 12.3672C82.2096 12.4414 82.1602 12.5404 82.1602 12.6641L82.3828 13.4805L82.3086 14.4453L82.5312 16.3379L82.457 17.043L82.6426 17.7852L82.5684 18.1191C82.5684 18.6634 82.6302 19.1706 82.7539 19.6406C82.9271 20.2591 83.0137 21.0137 83.0137 21.9043V23.9453L83.0879 24.4277L83.0508 25.2812L83.1992 30.7363C83.1992 31.3301 83.4342 31.627 83.9043 31.627L84.6094 31.5156C85.0299 31.5156 85.2402 31.7135 85.2402 32.1094C85.2402 32.2331 85.1536 32.3691 84.9805 32.5176C84.7331 32.7402 84.5228 32.8516 84.3496 32.8516H84.127L82.9395 32.7773C82.1973 32.7773 81.6406 32.9258 81.2695 33.2227C81.1953 33.2474 81.1211 33.2474 81.0469 33.2227C80.9727 33.2227 80.8984 33.2227 80.8242 33.2227L80.1191 33.3711L78.7832 33.5566C78.4368 33.5566 78.2637 33.4206 78.2637 33.1484C78.2637 33.0495 78.3132 32.9382 78.4121 32.8145C78.5111 32.6908 78.61 32.6289 78.709 32.6289L78.9316 32.666C78.9811 32.666 79.0306 32.6536 79.0801 32.6289C79.1296 32.5794 79.2161 32.5299 79.3398 32.4805C79.4635 32.431 79.6243 32.3939 79.8223 32.3691C80.0449 32.3197 80.2552 32.2578 80.4531 32.1836C80.651 32.0352 80.8242 31.8743 80.9727 31.7012C80.8737 31.2311 80.8242 30.7116 80.8242 30.1426L80.8984 29.3262C80.8984 29.3014 80.8737 29.252 80.8242 29.1777C80.7995 29.1035 80.7747 28.9674 80.75 28.7695C80.7253 28.5716 80.7005 28.3613 80.6758 28.1387C80.6758 27.916 80.6634 27.6934 80.6387 27.4707C80.6139 27.248 80.6016 27.0996 80.6016 27.0254L80.7129 25.9492L80.6016 24.168C80.6016 23.7969 80.6139 23.4258 80.6387 23.0547C80.6882 22.6836 80.6758 22.3249 80.6016 21.9785L80.4531 20.1602C80.4284 20.0612 80.4036 19.9746 80.3789 19.9004C80.3542 19.8262 80.3418 19.7272 80.3418 19.6035L80.3789 18.75L80.2305 17.5996L80.3047 17.1172L80.1562 16.0781L80.2305 15.3359L80.082 11.959L79.9707 8.73047V8.0625C79.9707 7.86458 79.9831 7.66667 80.0078 7.46875C80.0573 7.41927 80.082 7.36979 80.082 7.32031L80.0078 7.17188C80.0078 7.07292 80.0449 6.93685 80.1191 6.76367C80.1934 6.56576 80.2057 6.3431 80.1562 6.0957C80.1315 5.82357 80.2428 5.66276 80.4902 5.61328C80.5397 5.61328 80.5521 5.55143 80.5273 5.42773C80.5768 5.40299 80.7376 5.39062 81.0098 5.39062C81.4551 5.39062 81.8014 5.83594 82.0488 6.72656C82.1478 6.85026 82.3457 7.02344 82.6426 7.24609C82.6673 7.49349 82.7539 7.71615 82.9023 7.91406C83.0508 8.08724 83.1621 8.26042 83.2363 8.43359C83.3353 8.60677 83.3971 8.74284 83.4219 8.8418C83.4714 8.94076 83.5208 9.03971 83.5703 9.13867L83.9785 9.6582C84.028 9.75716 84.0527 9.85612 84.0527 9.95508C84.0527 10.054 84.0775 10.1777 84.127 10.3262C84.2012 10.4499 84.3125 10.6354 84.4609 10.8828C84.6341 11.1302 84.7702 11.3529 84.8691 11.5508C84.9681 11.724 85.0547 11.8971 85.1289 12.0703C85.2031 12.293 85.3145 12.5156 85.4629 12.7383C85.6361 12.9609 85.7227 13.1341 85.7227 13.2578C85.7227 13.3568 85.7598 13.4805 85.834 13.6289C85.9082 13.7526 86.0072 13.901 86.1309 14.0742C86.2546 14.2227 86.3411 14.3587 86.3906 14.4824C86.4648 14.6061 86.502 14.7174 86.502 14.8164C86.502 14.8906 86.5143 14.9525 86.5391 15.002C86.5885 15.0267 86.6257 15.0514 86.6504 15.0762C86.6751 15.0762 86.6999 15.1009 86.7246 15.1504C86.7741 15.1999 86.7988 15.2617 86.7988 15.3359C86.7988 15.4102 86.8236 15.4844 86.873 15.5586L87.0215 15.6328C87.071 15.7318 87.1328 15.9297 87.207 16.2266C87.306 16.4987 87.4421 16.7585 87.6152 17.0059C87.8132 17.2285 87.9863 17.5254 88.1348 17.8965C88.3079 18.2676 88.4811 18.5645 88.6543 18.7871L88.9141 19.1953C88.9635 19.2943 89.0007 19.3932 89.0254 19.4922C89.0501 19.5911 89.0872 19.6777 89.1367 19.752L89.4336 20.0859C89.5078 20.2096 89.5573 20.3333 89.582 20.457C89.6315 20.5807 89.6934 20.6921 89.7676 20.791L89.916 20.8652C89.9655 20.9642 90.0768 21.1497 90.25 21.4219C90.4232 21.694 90.6458 22.0651 90.918 22.5352C91.1901 22.9805 91.4128 23.3021 91.5859 23.5C91.7839 23.6979 91.9199 23.9206 91.9941 24.168C92.0931 24.3906 92.2663 24.5391 92.5137 24.6133C92.6374 24.5638 92.6868 24.4896 92.6621 24.3906C92.6374 24.2669 92.625 24.1556 92.625 24.0566L92.6992 23.0547L92.625 20.5684C92.625 20.222 92.6497 19.888 92.6992 19.5664C92.7734 19.2448 92.8229 18.9603 92.8477 18.7129C92.8724 18.4655 92.8724 18.2676 92.8477 18.1191C92.8477 17.9707 92.8477 17.8223 92.8477 17.6738L92.9961 16.8203V16.2266L93.1445 15.2988L93.0703 14.1855C93.0703 13.6413 93.0951 13.097 93.1445 12.5527C93.194 12.5527 93.2188 12.5404 93.2188 12.5156L93.1445 11.5879L93.2188 10.3262L93.1816 9.17578C93.1816 8.77995 93.2188 8.39648 93.293 8.02539C93.3919 7.62956 93.4538 7.29557 93.4785 7.02344C93.528 6.7513 93.5651 6.57812 93.5898 6.50391C93.6393 6.40495 93.6641 6.31836 93.6641 6.24414C93.6641 6.14518 93.6393 6.07096 93.5898 6.02148L93.7754 5.42773C93.7754 5.13086 93.7012 4.95768 93.5527 4.9082C93.4043 4.83398 93.2559 4.77214 93.1074 4.72266C92.9837 4.67318 92.8971 4.6237 92.8477 4.57422C92.7982 4.52474 92.7116 4.51237 92.5879 4.53711C92.4889 4.56185 92.39 4.57422 92.291 4.57422C92.1921 4.57422 92.1178 4.51237 92.0684 4.38867C92.0684 4.28971 92.0189 4.22786 91.9199 4.20312C91.9447 3.98047 92.0436 3.83203 92.2168 3.75781C92.39 3.68359 92.526 3.57227 92.625 3.42383C92.7734 3.47331 92.9095 3.49805 93.0332 3.49805L93.6641 3.34961C93.862 3.34961 94.0352 3.39909 94.1836 3.49805C94.332 3.59701 94.4681 3.67122 94.5918 3.7207C94.7402 3.77018 94.8639 3.79492 94.9629 3.79492C95.0866 3.77018 95.2103 3.75781 95.334 3.75781H95.4824L95.5195 3.83203L95.7051 3.79492L96.4102 3.90625L97.375 3.86914ZM102.533 7.32031L102.645 6.65234C102.62 6.45443 102.645 6.28125 102.719 6.13281C102.818 5.95964 102.88 5.83594 102.904 5.76172C102.929 5.66276 102.929 5.58854 102.904 5.53906C102.904 5.46484 102.904 5.40299 102.904 5.35352L103.053 4.94531L102.979 4.24023C102.979 3.27539 103.053 2.59505 103.201 2.19922C103.35 1.80339 103.424 1.50651 103.424 1.30859C103.548 1.23438 103.671 1.14779 103.795 1.04883C103.919 0.92513 104.055 0.838542 104.203 0.789062C104.327 0.838542 104.438 0.888021 104.537 0.9375C104.636 0.96224 104.747 1.03646 104.871 1.16016C105.02 1.28385 105.168 1.58073 105.316 2.05078C105.465 2.49609 105.613 2.97852 105.762 3.49805C105.935 4.01758 106.096 4.53711 106.244 5.05664C106.417 5.55143 106.615 5.92253 106.838 6.16992C106.838 6.83789 106.949 7.30794 107.172 7.58008C107.147 7.62956 107.135 7.70378 107.135 7.80273C107.135 7.87695 107.172 8.08724 107.246 8.43359C107.642 10.1901 107.939 11.1673 108.137 11.3652V11.5879L108.582 13.1836C108.656 13.4805 108.718 13.7773 108.768 14.0742C108.817 14.3464 108.953 14.5938 109.176 14.8164C109.176 15.2617 109.299 15.6204 109.547 15.8926C109.596 16.1647 109.646 16.4987 109.695 16.8945C109.77 17.2904 109.906 17.5872 110.104 17.7852C110.227 18.7995 110.388 19.4427 110.586 19.7148C110.809 19.9622 110.908 20.1849 110.883 20.3828C110.809 20.6549 110.858 20.9395 111.031 21.2363C111.204 21.5332 111.291 21.7682 111.291 21.9414C111.316 22.1146 111.39 22.263 111.514 22.3867C111.786 22.3867 112.021 22.2754 112.219 22.0527C112.441 21.8301 112.577 21.5827 112.627 21.3105C112.701 21.3105 112.837 21.1745 113.035 20.9023C114.049 19.319 114.705 18.4531 115.002 18.3047C115.051 18.0326 115.15 17.8346 115.299 17.7109C115.472 17.5625 115.546 17.3522 115.521 17.0801C115.62 17.0059 115.695 16.9316 115.744 16.8574C115.818 16.7585 115.917 16.6842 116.041 16.6348C116.214 16.1152 116.474 15.7441 116.82 15.5215C116.845 15.4473 116.857 15.373 116.857 15.2988C116.882 15.1999 116.919 15.1133 116.969 15.0391C117.117 14.9896 117.216 14.9154 117.266 14.8164C117.34 14.6927 117.439 14.6061 117.562 14.5566V14.5195C117.562 14.3711 117.624 14.2598 117.748 14.1855C117.896 14.0866 117.995 13.9876 118.045 13.8887C118.119 13.765 118.181 13.5794 118.23 13.332C118.305 13.0846 118.391 12.9362 118.49 12.8867L118.676 12.8125C118.849 12.6146 118.973 12.3796 119.047 12.1074C119.146 11.8105 119.307 11.5632 119.529 11.3652V11.1426H119.678C119.727 11.0931 119.752 11.0065 119.752 10.8828C119.777 10.7591 119.851 10.6849 119.975 10.6602L119.938 10.5859C119.938 10.2396 120.036 9.96745 120.234 9.76953C120.432 9.54688 120.519 9.23763 120.494 8.8418L120.791 8.61914C120.84 8.56966 120.865 8.50781 120.865 8.43359C120.865 8.33464 120.878 8.26042 120.902 8.21094L121.273 7.6543C121.397 7.45638 121.496 7.24609 121.57 7.02344C121.645 6.77604 121.793 6.59049 122.016 6.4668V6.31836C122.016 6.12044 122.077 5.9349 122.201 5.76172C122.35 5.5638 122.449 5.40299 122.498 5.2793C122.548 5.13086 122.572 5.00716 122.572 4.9082C122.597 4.78451 122.622 4.69792 122.646 4.64844C122.696 4.59896 122.733 4.57422 122.758 4.57422C122.906 4.57422 122.956 4.48763 122.906 4.31445C122.857 4.14128 122.894 4.05469 123.018 4.05469C123.166 4.05469 123.24 3.99284 123.24 3.86914L123.389 2.86719C123.389 2.71875 123.376 2.60742 123.352 2.5332C123.5 2.43424 123.574 2.32292 123.574 2.19922C123.574 2.07552 123.549 1.98893 123.5 1.93945C123.525 1.84049 123.574 1.77865 123.648 1.75391C123.723 1.70443 123.785 1.65495 123.834 1.60547V1.45703C123.834 1.25911 123.908 1.11068 124.057 1.01172C124.23 0.888021 124.378 0.776693 124.502 0.677734C124.675 0.702474 124.811 0.776693 124.91 0.900391C125.009 0.999349 125.12 1.11068 125.244 1.23438C125.12 1.38281 125.059 1.65495 125.059 2.05078C125.059 2.42188 125.009 2.71875 124.91 2.94141C124.836 3.16406 124.799 3.37435 124.799 3.57227C124.799 3.77018 124.836 3.94336 124.91 4.0918C124.984 4.21549 125.021 4.33919 125.021 4.46289L124.947 5.01953L125.021 6.16992C125.021 6.39258 124.997 6.56576 124.947 6.68945C124.972 6.83789 125.009 6.97396 125.059 7.09766C125.108 7.19661 125.145 7.32031 125.17 7.46875C125.195 7.59245 125.195 7.72852 125.17 7.87695C125.17 8.00065 125.17 8.12435 125.17 8.24805L125.393 8.95312C125.393 9.0026 125.38 9.02734 125.355 9.02734C125.331 9.02734 125.318 9.07682 125.318 9.17578C125.318 9.27474 125.368 9.53451 125.467 9.95508C125.59 10.3509 125.652 10.722 125.652 11.0684V11.1426L125.578 11.1797L125.689 11.5879L125.578 12.1074L125.801 12.8496L125.727 13.7031C125.727 13.7773 125.776 14.0618 125.875 14.5566L125.838 15.1133C125.838 15.3607 125.875 15.5462 125.949 15.6699C126.048 15.7689 126.122 15.9173 126.172 16.1152L126.246 16.9316C126.271 17.0553 126.296 17.179 126.32 17.3027C126.345 17.4017 126.37 17.5378 126.395 17.7109C126.419 17.8594 126.419 18.0326 126.395 18.2305C126.37 18.4036 126.357 18.6263 126.357 18.8984C126.357 19.1706 126.419 19.554 126.543 20.0488C126.617 21.0879 126.729 21.9167 126.877 22.5352C127.05 23.1289 127.137 23.5495 127.137 23.7969C127.137 24.0195 127.087 24.2174 126.988 24.3906C127.211 24.7865 127.31 25.2441 127.285 25.7637C127.285 26.2832 127.31 26.6914 127.359 26.9883C127.434 27.2604 127.495 27.4707 127.545 27.6191C127.594 27.7428 127.619 27.916 127.619 28.1387C127.619 28.3366 127.656 28.584 127.73 28.8809C127.829 29.153 127.891 29.4251 127.916 29.6973L128.213 29.7344C128.609 29.7344 128.955 29.6849 129.252 29.5859C129.574 29.487 129.784 29.4004 129.883 29.3262C129.982 29.252 130.093 29.2272 130.217 29.252C130.34 29.252 130.439 29.252 130.514 29.252L130.996 29.1777C131.12 29.1777 131.206 29.2272 131.256 29.3262C131.305 29.4004 131.392 29.4499 131.516 29.4746C131.565 29.5241 131.59 29.623 131.59 29.7715C131.59 29.8952 131.565 30.0312 131.516 30.1797C131.293 30.3281 131.12 30.4023 130.996 30.4023C130.897 30.4023 130.823 30.3776 130.773 30.3281C130.526 30.5508 130.353 30.6745 130.254 30.6992C130.18 30.6992 130.007 30.6992 129.734 30.6992L129.586 30.7363C129.413 30.7363 129.24 30.7734 129.066 30.8477C128.918 30.9219 128.757 30.9714 128.584 30.9961L127.99 31.0703C127.768 31.1445 127.557 31.2559 127.359 31.4043C127.161 31.528 126.939 31.5898 126.691 31.5898L125.875 31.5156C125.727 31.5156 125.467 31.5898 125.096 31.7383L124.65 31.7012C124.452 31.7012 124.242 31.7507 124.02 31.8496C123.822 31.9486 123.599 31.998 123.352 31.998H123.166C122.919 31.8001 122.795 31.5898 122.795 31.3672C122.795 31.1445 122.82 30.959 122.869 30.8105C123.018 30.6868 123.426 30.5755 124.094 30.4766C124.786 30.3776 125.244 30.2539 125.467 30.1055C125.417 29.9323 125.393 29.7715 125.393 29.623C125.417 29.4499 125.405 29.2643 125.355 29.0664C125.331 28.8685 125.306 28.7572 125.281 28.7324C125.257 28.6829 125.244 28.5592 125.244 28.3613C125.244 28.1634 125.195 27.9531 125.096 27.7305C125.021 27.5078 124.96 27.2852 124.91 27.0625C124.861 26.8151 124.836 26.543 124.836 26.2461C124.861 25.9245 124.861 25.6152 124.836 25.3184L124.688 24.3906L124.762 24.1309C124.762 23.8587 124.7 23.5247 124.576 23.1289C124.477 22.7331 124.403 22.4486 124.354 22.2754C124.329 22.0775 124.329 21.9414 124.354 21.8672C124.378 21.7682 124.391 21.6693 124.391 21.5703C124.391 21.4714 124.354 21.3848 124.279 21.3105C124.329 21.2116 124.354 21.1126 124.354 21.0137C124.354 20.89 124.378 20.791 124.428 20.7168C124.279 20.0983 124.193 19.4798 124.168 18.8613C124.168 18.2181 124.131 17.5996 124.057 17.0059L123.908 16.5605C123.883 16.4616 123.871 16.3626 123.871 16.2637C123.896 16.14 123.908 16.0286 123.908 15.9297L123.76 15.2617L123.834 14.9648V14.6309C123.834 13.9629 123.772 13.5918 123.648 13.5176C123.723 13.4434 123.735 13.332 123.686 13.1836C123.661 13.0104 123.686 12.8867 123.76 12.8125C123.686 12.6393 123.648 12.4414 123.648 12.2188L123.686 11.1797C123.686 11.0065 123.648 10.7467 123.574 10.4004C123.525 10.0293 123.5 9.79427 123.5 9.69531C123.525 9.59635 123.525 9.47266 123.5 9.32422L123.24 8.8418V8.39648C123.24 8.17383 123.191 8.02539 123.092 7.95117H123.055C122.906 7.92643 122.758 8.0625 122.609 8.35938C122.263 8.55729 122.09 8.75521 122.09 8.95312C122.09 9.15104 122.053 9.25 121.979 9.25C121.904 9.25 121.842 9.27474 121.793 9.32422C121.743 9.3737 121.731 9.42318 121.756 9.47266C121.781 9.52214 121.743 9.62109 121.645 9.76953C121.546 9.89323 121.484 10.0169 121.459 10.1406C121.434 10.2396 121.397 10.3385 121.348 10.4375C121.298 10.5117 121.236 10.5859 121.162 10.6602C121.113 10.7096 121.063 10.7715 121.014 10.8457C120.989 10.9199 120.977 11.0065 120.977 11.1055C121.001 11.2044 121.014 11.3034 121.014 11.4023C121.014 11.5013 120.939 11.6497 120.791 11.8477C120.643 12.0456 120.544 12.2311 120.494 12.4043C120.42 12.429 120.358 12.4661 120.309 12.5156C120.284 12.5404 120.21 12.5527 120.086 12.5527C120.036 12.9486 119.913 13.2578 119.715 13.4805C119.517 13.7031 119.331 13.9753 119.158 14.2969C119.035 14.3958 118.874 14.4824 118.676 14.5566C118.651 14.6309 118.602 14.7422 118.527 14.8906C118.478 15.0143 118.391 15.1999 118.268 15.4473C118.169 15.6699 118.144 15.8431 118.193 15.9668C118.169 16.0163 118.132 16.041 118.082 16.041C118.033 16.041 117.983 16.0658 117.934 16.1152C117.884 16.1647 117.859 16.2389 117.859 16.3379C117.859 16.4121 117.785 16.474 117.637 16.5234C117.365 16.6471 117.241 16.7832 117.266 16.9316C117.315 17.0801 117.278 17.2409 117.154 17.4141C117.08 17.7357 116.932 17.9831 116.709 18.1562C116.486 18.3047 116.338 18.4284 116.264 18.5273C116.214 18.6263 116.177 18.7253 116.152 18.8242C116.128 18.8984 116.09 18.985 116.041 19.084L115.893 19.1582C115.546 19.8509 115.336 20.2344 115.262 20.3086C115.163 20.4076 114.94 20.7168 114.594 21.2363L114.186 21.8672C114.062 22.0404 114 22.1393 114 22.1641C113.431 22.3372 113.085 22.7949 112.961 23.5371C112.664 23.7103 112.454 23.8587 112.33 23.9824C111.835 25.0462 111.378 25.5781 110.957 25.5781C110.685 25.5781 110.487 25.5286 110.363 25.4297C110.264 25.306 110.128 25.2194 109.955 25.1699C109.807 24.7493 109.671 24.4896 109.547 24.3906V24.0938C109.547 23.7721 109.51 23.5618 109.436 23.4629C109.361 23.3639 109.275 23.1784 109.176 22.9062L108.805 21.0508C108.78 20.9271 108.718 20.8405 108.619 20.791C108.52 20.7168 108.458 20.5436 108.434 20.2715C108.409 19.9746 108.335 19.7891 108.211 19.7148L108.248 19.4922C108.248 19.2448 108.124 18.8366 107.877 18.2676C107.654 17.6986 107.493 17.3893 107.395 17.3398C107.419 17.3151 107.432 17.2285 107.432 17.0801C107.432 16.9316 107.382 16.6471 107.283 16.2266C107.184 15.7812 107.085 15.4596 106.986 15.2617C106.887 15.0638 106.826 14.8535 106.801 14.6309C106.776 14.4082 106.727 14.1732 106.652 13.9258C106.578 13.6784 106.541 13.4805 106.541 13.332V13.2949L106.393 13.1094L106.318 12.5898C106.294 12.4661 106.257 12.3301 106.207 12.1816C106.158 12.0332 106.108 11.8848 106.059 11.7363L105.984 11.2168C105.91 11.0684 105.824 10.9323 105.725 10.8086C105.626 10.6602 105.527 10.5117 105.428 10.3633C105.428 10.1654 105.428 9.96745 105.428 9.76953C105.428 9.57161 105.366 9.39844 105.242 9.25V8.95312C105.242 8.45833 105.094 8.21094 104.797 8.21094C104.723 8.21094 104.686 8.28516 104.686 8.43359C104.71 8.55729 104.723 8.64388 104.723 8.69336V8.76758C104.624 8.8418 104.574 9.01497 104.574 9.28711C104.574 9.53451 104.648 9.70768 104.797 9.80664C104.673 10.1035 104.611 10.4622 104.611 10.8828C104.636 11.3034 104.624 11.6868 104.574 12.0332L104.5 12.5527L104.574 12.9238L104.426 13.5918L104.5 14.3711V14.8906C104.5 15.0638 104.475 15.2246 104.426 15.373L104.277 15.8184C104.228 16.041 104.215 16.276 104.24 16.5234C104.265 16.7461 104.253 16.9564 104.203 17.1543C104.154 17.3275 104.129 17.4388 104.129 17.4883C104.079 17.6862 104.055 17.8346 104.055 17.9336V18.2676C104.055 18.4902 104.018 18.7129 103.943 18.9355C103.894 19.1582 103.857 19.3932 103.832 19.6406C103.807 19.8633 103.795 20.0859 103.795 20.3086C103.82 20.5312 103.807 20.7415 103.758 20.9395C103.733 21.1126 103.708 21.2363 103.684 21.3105C103.684 21.3848 103.671 21.459 103.646 21.5332C103.646 21.5827 103.646 21.6445 103.646 21.7188V22.0898L103.498 22.832C103.449 22.9805 103.424 23.1289 103.424 23.2773C103.449 23.4258 103.461 23.6237 103.461 23.8711C103.461 24.0938 103.436 24.2669 103.387 24.3906C103.189 24.7122 103.102 25.0586 103.127 25.4297C103.176 25.8008 103.152 26.1595 103.053 26.5059C102.954 26.8275 102.904 27.2604 102.904 27.8047C102.904 28.349 102.842 28.9303 102.719 29.5488C103.04 29.9199 103.275 30.1055 103.424 30.1055C103.597 30.1055 103.684 30.1797 103.684 30.3281C103.684 30.3776 103.733 30.4271 103.832 30.4766C103.807 30.6497 103.77 30.7734 103.721 30.8477C103.671 30.8971 103.659 31.0208 103.684 31.2188H103.609L103.35 31.293H103.275C103.251 31.2682 103.214 31.2559 103.164 31.2559L103.053 31.4414C102.954 31.3919 102.768 31.3672 102.496 31.3672C102.249 31.3672 102.088 31.4167 102.014 31.5156C101.816 31.4167 101.556 31.3672 101.234 31.3672C100.938 31.3672 100.764 31.429 100.715 31.5527C100.69 31.6517 100.616 31.7135 100.492 31.7383C100.467 31.7135 100.418 31.7012 100.344 31.7012L98.6738 31.9238H97.9688C97.5482 31.9238 97.3132 31.8867 97.2637 31.8125C97.1895 31.7135 97.14 31.6517 97.1152 31.627C97.0905 31.5775 97.0286 31.5404 96.9297 31.5156C96.9049 31.4909 96.8926 31.4538 96.8926 31.4043L97.041 31.1074C96.9668 31.0332 96.9297 30.9714 96.9297 30.9219C96.9297 30.8477 96.9544 30.7611 97.0039 30.6621C97.3255 30.4395 97.6719 30.3281 98.043 30.3281C98.4388 30.3281 98.8099 30.2539 99.1562 30.1055C99.2305 30.1302 99.3542 30.1426 99.5273 30.1426C99.7253 30.1426 99.8984 30.1178 100.047 30.0684C100.195 30.0189 100.344 29.9694 100.492 29.9199C100.517 29.821 100.529 29.6973 100.529 29.5488L100.492 28.7324L100.641 27.6562L100.566 27.0996C100.566 26.9759 100.591 26.8027 100.641 26.5801C100.715 26.3327 100.74 26.1348 100.715 25.9863C100.715 25.8379 100.727 25.6895 100.752 25.541C100.777 25.3678 100.801 25.2194 100.826 25.0957C100.876 24.972 100.925 24.8359 100.975 24.6875C101.024 24.5391 101.049 24.2546 101.049 23.834C101.049 23.3887 101.111 22.9557 101.234 22.5352C101.383 22.0898 101.457 21.6569 101.457 21.2363L101.383 20.791C101.383 20.7168 101.395 20.6673 101.42 20.6426C101.469 20.6178 101.507 20.5189 101.531 20.3457C101.556 20.1725 101.568 19.9622 101.568 19.7148C101.593 19.4427 101.63 19.1458 101.68 18.8242C101.754 18.4779 101.791 18.2181 101.791 18.0449L101.717 17.6367C101.717 17.513 101.729 17.3893 101.754 17.2656C101.952 16.7214 102.051 16.1523 102.051 15.5586V15.0391C102.051 14.9648 102.038 14.8906 102.014 14.8164C102.162 14.3711 102.236 14.0618 102.236 13.8887V13.332L102.385 12.6641L102.311 12.2559L102.385 11.8105L102.311 11.3281L102.459 10.6602L102.422 9.73242L102.607 8.43359C102.607 8.38411 102.583 8.33464 102.533 8.28516C102.508 8.23568 102.508 8.19857 102.533 8.17383C102.558 8.12435 102.57 8.0625 102.57 7.98828L102.533 7.32031ZM150.627 12.2188C150.627 12.8867 150.8 13.3691 151.146 13.666V13.7773C151.146 13.9753 151.208 14.2474 151.332 14.5938C151.48 14.9401 151.555 15.3359 151.555 15.7812C151.555 16.2266 151.654 16.5234 151.852 16.6719C151.802 16.7461 151.74 16.8203 151.666 16.8945C151.592 16.9688 151.555 17.043 151.555 17.1172C151.555 17.1914 151.579 17.2409 151.629 17.2656C151.703 17.2656 151.74 17.3027 151.74 17.377L151.703 17.4512C151.728 17.6491 151.715 17.8346 151.666 18.0078C151.617 18.181 151.592 18.3542 151.592 18.5273C151.592 18.6758 151.604 18.7871 151.629 18.8613L151.332 19.4922C151.357 19.5911 151.369 19.7148 151.369 19.8633C151.369 20.3086 151.146 20.6178 150.701 20.791C150.726 20.89 150.738 21.0508 150.738 21.2734C150.738 21.4961 150.701 21.7311 150.627 21.9785C150.577 22.2012 150.54 22.4362 150.516 22.6836C150.219 22.832 150.083 23.0423 150.107 23.3145C149.885 23.3887 149.699 23.5247 149.551 23.7227C149.427 23.8958 149.303 24.0443 149.18 24.168C149.056 24.2917 148.957 24.3783 148.883 24.4277C148.809 24.4525 148.734 24.5143 148.66 24.6133C148.586 24.6875 148.524 24.7865 148.475 24.9102C148.4 25.1081 148.289 25.2812 148.141 25.4297C147.992 25.5286 147.918 25.6276 147.918 25.7266C147.918 25.8008 147.844 25.9368 147.695 26.1348C147.547 26.3079 147.287 26.4811 146.916 26.6543C146.57 26.8027 146.273 27.013 146.025 27.2852H145.914L145.506 27.4336C145.432 27.5078 145.357 27.6191 145.283 27.7676C145.16 27.9408 144.875 27.9902 144.43 27.916C144.281 27.9902 144.108 28.0892 143.91 28.2129C143.737 28.3118 143.539 28.3613 143.316 28.3613C143.118 28.3613 143.02 28.4108 143.02 28.5098C143.02 28.584 142.933 28.6211 142.76 28.6211C142.611 28.6211 142.5 28.6458 142.426 28.6953H142.389L141.869 28.5469C141.622 28.6458 141.399 28.6953 141.201 28.6953L140.273 28.4727C140.224 28.4727 140.15 28.4974 140.051 28.5469C139.952 28.4232 139.828 28.349 139.68 28.3242C139.531 28.2995 139.408 28.25 139.309 28.1758C139.234 28.2005 139.135 28.2747 139.012 28.3984H138.938L138.232 28.4355C137.96 28.4355 137.799 28.349 137.75 28.1758C137.503 28.25 137.193 28.1634 136.822 27.916C136.476 27.6439 136.278 27.3965 136.229 27.1738H136.117L135.672 27.0254C135.598 26.9264 135.523 26.8398 135.449 26.7656C135.375 26.6667 135.326 26.5553 135.301 26.4316C135.103 26.3822 134.942 26.2956 134.818 26.1719C134.695 26.0234 134.509 25.9492 134.262 25.9492C134.212 25.8008 134.126 25.6895 134.002 25.6152C133.903 25.541 133.804 25.4668 133.705 25.3926C133.557 24.8978 133.26 24.4401 132.814 24.0195C132.344 22.7578 132.035 21.9785 131.887 21.6816C131.763 21.3848 131.701 21.2116 131.701 21.1621L131.812 20.791L131.738 20.6055C131.738 20.556 131.751 20.5312 131.775 20.5312C131.8 20.5312 131.812 20.5065 131.812 20.457L131.664 19.6035L131.738 19.0469L131.553 18.6387L131.812 17.5996V17.1543C131.812 17.0306 131.837 16.9193 131.887 16.8203C131.936 16.6966 131.986 16.5358 132.035 16.3379C132.085 16.1152 132.109 15.8555 132.109 15.5586C132.109 15.237 132.146 14.9525 132.221 14.7051C132.295 14.4329 132.382 14.2598 132.48 14.1855C132.604 14.0866 132.641 13.8887 132.592 13.5918C132.889 13.196 133.087 12.8249 133.186 12.4785C133.309 12.1074 133.371 11.8971 133.371 11.8477C133.371 11.6992 133.408 11.5879 133.482 11.5137C133.606 11.4395 133.656 11.3405 133.631 11.2168C133.631 11.0931 133.668 11.0065 133.742 10.957C133.816 10.9076 133.891 10.8333 133.965 10.7344C134.039 10.6354 134.113 10.4993 134.188 10.3262C134.262 10.153 134.361 9.97982 134.484 9.80664L134.633 9.73242C134.707 9.50977 135.165 9.10156 136.006 8.50781C136.08 8.43359 136.117 8.35938 136.117 8.28516C136.142 8.21094 136.179 8.14909 136.229 8.09961C136.327 8.07487 136.525 7.98828 136.822 7.83984L136.896 7.69141L137.49 7.39453L137.527 7.24609C137.577 7.22135 137.639 7.22135 137.713 7.24609C137.787 7.24609 137.948 7.19661 138.195 7.09766C138.467 6.97396 138.777 6.81315 139.123 6.61523C139.469 6.39258 139.791 6.28125 140.088 6.28125C140.41 6.28125 140.595 6.24414 140.645 6.16992C140.719 6.0957 140.818 6.04622 140.941 6.02148C141.09 5.97201 141.251 5.95964 141.424 5.98438C141.597 6.00911 141.745 5.94727 141.869 5.79883H141.906C142.03 5.79883 142.129 5.87305 142.203 6.02148C142.5 5.87305 142.772 5.79883 143.02 5.79883C143.267 5.79883 143.391 5.82357 143.391 5.87305C143.391 5.89779 143.415 5.92253 143.465 5.94727C143.514 5.97201 143.564 5.97201 143.613 5.94727C143.663 5.92253 143.737 5.91016 143.836 5.91016C143.935 5.91016 144.071 6.00911 144.244 6.20703C144.442 6.38021 144.702 6.4668 145.023 6.4668L145.729 6.42969C146.025 6.42969 146.26 6.49154 146.434 6.61523C146.607 6.71419 146.805 6.77604 147.027 6.80078C147.077 6.82552 147.102 6.875 147.102 6.94922C147.102 6.9987 147.126 7.04818 147.176 7.09766H147.324C147.423 7.17188 147.497 7.25846 147.547 7.35742C147.621 7.43164 147.695 7.49349 147.77 7.54297L148.141 7.76562C148.24 7.83984 148.326 7.92643 148.4 8.02539C148.475 8.09961 148.574 8.17383 148.697 8.24805C148.771 8.29753 148.833 8.37174 148.883 8.4707C148.957 8.56966 149.031 8.66862 149.105 8.76758C149.18 8.8418 149.254 8.90365 149.328 8.95312C149.402 9.0026 149.464 9.08919 149.514 9.21289C149.563 9.31185 149.588 9.41081 149.588 9.50977C149.588 9.60872 149.613 9.72005 149.662 9.84375C149.712 9.94271 149.749 9.97982 149.773 9.95508C149.798 9.93034 149.811 9.99219 149.811 10.1406C149.811 10.2643 149.835 10.4128 149.885 10.5859C149.959 10.7344 150.046 10.9076 150.145 11.1055C150.243 11.2786 150.33 11.4518 150.404 11.625C150.479 11.7982 150.553 11.8971 150.627 11.9219V12.2188ZM134.596 15.8926L134.41 17.7852C134.41 17.9583 134.423 18.1068 134.447 18.2305C134.497 18.3294 134.534 18.5026 134.559 18.75C134.583 18.9727 134.583 19.2572 134.559 19.6035C134.559 19.9251 134.583 20.2962 134.633 20.7168C134.682 21.1374 134.831 21.5579 135.078 21.9785C135.326 22.3991 135.474 22.8691 135.523 23.3887C135.721 23.6608 135.907 23.9453 136.08 24.2422C136.278 24.5391 136.476 24.8236 136.674 25.0957C137.169 25.7884 137.713 26.209 138.307 26.3574C138.579 26.8522 139.086 27.0996 139.828 27.0996C140.051 27.0996 140.174 27.1243 140.199 27.1738H140.756L142.5 27.3594C142.648 27.3594 142.785 27.3346 142.908 27.2852C143.057 27.2109 143.193 27.1862 143.316 27.2109C143.514 27.0378 143.7 26.9512 143.873 26.9512C144.046 26.9264 144.257 26.877 144.504 26.8027C144.553 26.778 144.566 26.7285 144.541 26.6543C144.541 26.5553 144.578 26.4935 144.652 26.4688C144.727 26.444 144.838 26.4316 144.986 26.4316C145.085 26.1595 145.283 25.974 145.58 25.875C145.877 25.776 146.137 25.6276 146.359 25.4297C146.607 25.207 146.842 24.9967 147.064 24.7988C147.287 24.6009 147.485 24.3411 147.658 24.0195C147.856 23.6732 148.017 23.4382 148.141 23.3145L148.549 22.9434C148.598 22.8939 148.623 22.832 148.623 22.7578C148.623 22.6589 148.697 22.5723 148.846 22.498C149.019 22.4238 149.118 22.362 149.143 22.3125C149.192 22.2383 149.204 22.1764 149.18 22.127C149.18 22.0775 149.204 22.028 149.254 21.9785C149.402 21.929 149.464 21.8548 149.439 21.7559C149.439 21.6322 149.439 21.5085 149.439 21.3848C149.439 21.2363 149.477 21.125 149.551 21.0508C149.65 20.9518 149.662 20.8281 149.588 20.6797C149.761 20.556 149.86 20.3952 149.885 20.1973C149.91 19.9746 149.947 19.7891 149.996 19.6406C150.07 19.4674 150.145 19.3438 150.219 19.2695C150.318 19.1706 150.392 19.0592 150.441 18.9355C150.392 18.8861 150.367 18.7376 150.367 18.4902V18.1191C150.59 17.7728 150.701 17.4512 150.701 17.1543C150.701 16.8327 150.639 16.5482 150.516 16.3008C150.367 15.9792 150.293 15.571 150.293 15.0762C150.293 14.5566 150.219 14.235 150.07 14.1113C149.922 13.9876 149.848 13.8887 149.848 13.8145V13.5547L149.699 12.7383C149.699 12.6146 149.637 12.4909 149.514 12.3672C149.415 12.2435 149.34 12.1198 149.291 11.9961C149.266 11.8724 149.266 11.7487 149.291 11.625C149.316 11.5013 149.291 11.3405 149.217 11.1426C149.143 10.9447 149.044 10.8086 148.92 10.7344C148.821 10.6602 148.771 10.4499 148.771 10.1035C148.499 10.0046 148.339 9.80664 148.289 9.50977C148.017 9.43555 147.819 9.28711 147.695 9.06445C147.572 8.81706 147.448 8.66862 147.324 8.61914C147.225 8.56966 147.163 8.55729 147.139 8.58203C147.139 8.58203 147.114 8.58203 147.064 8.58203H147.027L146.953 8.39648C146.805 8.29753 146.656 8.24805 146.508 8.24805L145.877 8.39648C145.654 8.39648 145.444 8.3099 145.246 8.13672C145.048 7.96354 144.863 7.87695 144.689 7.87695C144.516 7.87695 144.368 7.91406 144.244 7.98828C144.17 7.91406 144.12 7.83984 144.096 7.76562C144.071 7.66667 144.021 7.59245 143.947 7.54297C143.749 7.51823 143.601 7.46875 143.502 7.39453C143.403 7.32031 143.267 7.24609 143.094 7.17188L142.945 7.20898L142.203 7.06055C142.154 7.06055 142.092 7.09766 142.018 7.17188C141.968 7.22135 141.882 7.24609 141.758 7.24609C141.634 7.22135 141.523 7.22135 141.424 7.24609C141.325 7.27083 141.238 7.30794 141.164 7.35742C141.09 7.38216 141.003 7.4069 140.904 7.43164C140.805 7.45638 140.682 7.45638 140.533 7.43164C140.385 7.4069 140.249 7.41927 140.125 7.46875C140.026 7.51823 139.939 7.58008 139.865 7.6543C139.816 7.72852 139.729 7.74089 139.605 7.69141C139.457 7.74089 139.346 7.82747 139.271 7.95117C139.222 8.05013 138.938 8.09961 138.418 8.09961C138.022 8.7181 137.515 9.13867 136.896 9.36133C136.847 9.55924 136.748 9.72005 136.6 9.84375C136.451 9.94271 136.315 10.0664 136.191 10.2148C136.043 10.388 135.857 10.7467 135.635 11.291C135.412 11.8353 135.301 12.2188 135.301 12.4414L135.375 12.7383C135.375 12.9115 135.326 13.0723 135.227 13.2207C135.128 13.3691 135.053 13.5176 135.004 13.666C134.954 13.7897 134.942 13.9258 134.967 14.0742C134.992 14.1979 134.979 14.334 134.93 14.4824C134.905 14.6061 134.855 14.7422 134.781 14.8906C134.608 15.1875 134.546 15.5215 134.596 15.8926Z" fill="white"/>
</svg>
