<svg width="30" height="23" viewBox="0 0 30 23" fill="none" xmlns="http://www.w3.org/2000/svg">
<path d="M7.00031 22.6355C3.13412 22.6355 0 19.5005 0 15.6329C0 11.7667 3.13412 8.63174 7.00031 8.63174C7.00031 8.63174 6.96644 6.03065 4.85332 2.28698C4.61859 1.53686 5.03701 0.738051 5.7876 0.504672C6.32015 0.337152 6.88054 0.499984 7.24242 0.879027C12.1013 6.19348 14.0033 12.4482 14.0033 15.6329C14.0033 19.5005 10.8692 22.6355 7.00031 22.6355Z" fill="#50DCAA"/>
<path d="M22.997 22.6355C19.1308 22.6355 15.9967 19.5004 15.9967 15.6329C15.9967 11.7667 19.1308 8.63174 22.997 8.63174C22.997 8.63174 22.9631 6.03065 20.85 2.28698C20.6153 1.53686 21.0337 0.73805 21.7843 0.504671C22.3168 0.337151 22.8772 0.499983 23.239 0.879026C28.098 6.19348 30 12.4482 30 15.6329C30 19.5005 26.8659 22.6355 22.997 22.6355Z" fill="#50DCAA"/>
</svg>
