<svg width="30" height="23" viewBox="0 0 30 23" fill="none" xmlns="http://www.w3.org/2000/svg">
<path d="M22.9997 22.4389C26.8659 22.4389 30 19.3039 30 15.4364C30 11.5702 26.8659 8.43521 22.9997 8.43521C22.9997 8.43521 23.0336 5.83412 25.1467 2.09044C25.3814 1.34033 24.963 0.541517 24.2124 0.308138C23.6798 0.140619 23.1195 0.303451 22.7576 0.682494C17.8987 5.99695 15.9967 12.2517 15.9967 15.4364C15.9967 19.3039 19.1308 22.4389 22.9997 22.4389Z" fill="#50DCAA"/>
<path d="M7.00301 22.4389C10.8692 22.4389 14.0033 19.3039 14.0033 15.4364C14.0033 11.5702 10.8692 8.43521 7.00301 8.43521C7.00301 8.43521 7.03688 5.83411 9.15 2.09044C9.38473 1.34032 8.96625 0.541516 8.21572 0.308137C7.68317 0.140618 7.12277 0.30345 6.76096 0.682493C1.90201 5.99695 2.78414e-07 12.2517 0 15.4364C-3.38111e-07 19.3039 3.13412 22.4389 7.00301 22.4389Z" fill="#50DCAA"/>
</svg>
